<svg width="16" height="16" fill="none" xmlns="http://www.w3.org/2000/svg"><path fill-rule="evenodd" clip-rule="evenodd" d="M7.3998 7.395v-6.6h1.2v6.6h6.6v1.2h-6.6v6.6h-1.2v-6.6h-6.6v-1.2h6.6z" fill="#6534FF"/><path d="M7.3998.795v-.5h-.5v.5h.5zm0 6.6v.5h.5v-.5h-.5zm1.2-6.6h.5v-.5h-.5v.5zm0 6.6h-.5v.5h.5v-.5zm6.6 0h.5v-.5h-.5v.5zm0 1.2v.5h.5v-.5h-.5zm-6.6 0v-.5h-.5v.5h.5zm0 6.6v.5h.5v-.5h-.5zm-1.2 0h-.5v.5h.5v-.5zm0-6.6h.5v-.5h-.5v.5zm-6.6 0h-.5v.5h.5v-.5zm0-1.2v-.5h-.5v.5h.5zm6.1-6.6v6.6h1v-6.6h-1zm1.7-.5h-1.2v1h1.2v-1zm.5 7.1v-6.6h-1v6.6h1zm6.1-.5h-6.6v1h6.6v-1zm.5 1.7v-1.2h-1v1.2h1zm-7.1.5h6.6v-1h-6.6v1zm.5 6.1v-6.6h-1v6.6h1zm-1.7.5h1.2v-1h-1.2v1zm-.5-7.1v6.6h1v-6.6h-1zm-6.1.5h6.6v-1h-6.6v1zm-.5-1.7v1.2h1v-1.2h-1zm7.1-.5h-6.6v1h6.6v-1z" fill="#6534FF"/></svg>