<svg width="24" height="24" fill="none" xmlns="http://www.w3.org/2000/svg"><path d="M8.0274 19.3248c0 .0992-.1113.1786-.2516.1786-.1597.0149-.271-.0645-.271-.1786 0-.0993.1113-.1787.2516-.1787.1452-.0149.271.0645.271.1787zm-1.5048-.2234c-.0339.0993.0629.2134.208.2432.1258.0496.271 0 .3-.0992.029-.0993-.0629-.2134-.208-.2581-.1258-.0347-.2662.0149-.3.1141zm2.1387-.0843c-.1403.0347-.2371.129-.2226.2432.0145.0992.1403.1637.2855.129.1403-.0348.237-.129.2226-.2283-.0145-.0943-.1452-.1588-.2855-.1439zM11.8452 0C5.1339 0 0 5.2257 0 12.109c0 5.5036 3.3774 10.2132 8.2016 11.8708.6194.1141.8371-.2779.8371-.6005 0-.3077-.0145-2.0049-.0145-3.0471 0 0-3.3871.7444-4.0984-1.4789 0 0-.5516-1.4441-1.3451-1.8163 0 0-1.1081-.7792.0774-.7643 0 0 1.2048.0993 1.8677 1.2804 1.0597 1.9156 2.8355 1.3647 3.5274 1.0372.1113-.794.4258-1.3449.7742-1.6724-2.7048-.3077-5.4339-.7097-5.4339-5.4838 0-1.3648.3678-2.0496 1.142-2.923-.1258-.3226-.5371-1.6526.1258-3.3697C6.6726 4.8188 9 6.4813 9 6.4813c.9677-.278 2.0081-.4218 3.0387-.4218 1.0307 0 2.071.1439 3.0387.4218 0 0 2.3274-1.6675 3.3387-1.34.6629 1.7221.2516 3.0472.1258 3.3697.7742.8784 1.2484 1.5633 1.2484 2.9231 0 4.789-2.85 5.1711-5.5548 5.4838.4451.392.8226 1.1364.8226 2.3026 0 1.6725-.0146 3.7419-.0146 4.1489 0 .3225.2226.7146.8371.6005C20.7194 22.3222 24 17.6126 24 12.109 24 5.2257 18.5565 0 11.8452 0zm-7.142 17.1164c-.0629.0496-.0484.1637.0339.258.0774.0794.1887.1142.2516.0496.063-.0496.0484-.1637-.0339-.258-.0774-.0794-.1887-.1142-.2516-.0496zm-.5226-.402c-.0338.0645.0146.1439.1113.1935.0774.0497.1742.0348.2081-.0347.0339-.0645-.0145-.1439-.1113-.1936-.0968-.0297-.1742-.0148-.208.0348zm1.5678 1.7667c-.0774.0645-.0484.2134.0629.3077.1113.1141.2516.129.3145.0496.063-.0645.0339-.2134-.0629-.3077-.1064-.1141-.2516-.129-.3145-.0496zm-.5516-.7295c-.0774.0496-.0774.1786 0 .2928.0774.1141.208.1638.271.1141.0774-.0645.0774-.1935 0-.3077-.0678-.1141-.1936-.1637-.271-.0992z" fill="#B8CAE0"/></svg>