<svg width="24" height="24" fill="none" xmlns="http://www.w3.org/2000/svg"><path d="M13.9286 12.9643a.9643.9643 0 101.9286 0 .9643.9643 0 00-1.9286 0zm3.8571-2.8929a.9616.9616 0 00-.8705.5518c.5036.3831.9214.8223 1.2294 1.3072a.9644.9644 0 00.4887-.4329.9642.9642 0 00-.2329-1.2062.964.964 0 00-.6147-.2199zM12 0C5.3732 0 0 5.3732 0 12s5.3732 12 12 12 12-5.3732 12-12S18.6268 0 12 0zm6.5625 12.8009c.1232.3616.1875.7393.1875 1.1277 0 2.6625-3.0214 4.8214-6.75 4.8214s-6.75-2.1589-6.75-4.8214c0-.3884.0643-.7661.1875-1.1277a1.929 1.929 0 01.7768-3.6938c.7259 0 1.3553.3991 1.6848.9911.9697-.5303 2.1482-.8786 3.4313-.967l1.5642-3.5116c.1152-.2625.4072-.3964.6831-.316l2.4535.7098a1.4473 1.4473 0 012.7215.6857c0 .7982-.6482 1.4464-1.4465 1.4464-.6294 0-1.1651-.4044-1.3633-.967l-2.2018-.6347-1.1518 2.5848c1.3152.0803 2.5232.4312 3.5143.9723.3294-.592.9589-.991 1.6848-.991 1.0661 0 1.9286.8624 1.9286 1.9285-.0027.7848-.4768 1.4625-1.1545 1.7625zm-4.5884 2.2232c-.3991.3134-1.1866.6509-1.9741.6509-.7875 0-1.5777-.3375-1.9741-.6509a.5715.5715 0 00-.8036.0964.5715.5715 0 00.0964.8036c.6884.5464 1.7411.8973 2.6813.8973.9402 0 1.9929-.3509 2.6839-.8973.2491-.1955.292-.5571.0965-.8036a.5746.5746 0 00-.8063-.0964zm-7.7598-4.9527a.9638.9638 0 00-.359 1.859c.308-.4849.726-.9241 1.2295-1.3072a.9616.9616 0 00-.8705-.5518zm1.9286 2.8929a.9642.9642 0 101.9283 0 .9642.9642 0 00-1.9283 0z" fill="#B8CAE0"/></svg>