<svg width="24" height="24" fill="none" xmlns="http://www.w3.org/2000/svg"><path d="M12 0C5.3706 0 0 5.3713 0 12c0 6.6286 5.3713 12 12 12 6.6294 0 12-5.3714 12-12 0-6.6287-5.3714-12-12-12zm5.8939 8.2212l-1.9695 9.281c-.1456.6581-.5373.8175-1.0839.5079l-3-2.2111-1.447 1.3935c-.1594.1595-.2949.295-.6046.295l.2129-3.0534 5.5595-5.023c.2423-.213-.0534-.3337-.3732-.1208l-6.871 4.3254-2.9612-.9243c-.6434-.2029-.658-.6434.1354-.9531L17.061 7.2766c.5373-.1935 1.0065.1309.8323.9438l.0007.0008z" fill="#6534ff"/></svg>
