<svg width="24" height="24" fill="none" xmlns="http://www.w3.org/2000/svg"><path d="M12 0C5.3732 0 0 5.3732 0 12s5.3732 12 12 12 12-5.3732 12-12S18.6268 0 12 0zm5.767 9.0455c.008.126.008.2572.008.3857 0 3.9322-2.9946 8.4617-8.467 8.4617-1.6875 0-3.2517-.4902-4.5696-1.334.241.0268.4714.0375.7178.0375 1.393 0 2.6733-.4714 3.6938-1.2696-1.3071-.0268-2.4054-.8839-2.7804-2.0625.458.067.8706.067 1.342-.0536a2.9731 2.9731 0 01-2.3812-2.9196v-.0375c.3937.2223.8571.3589 1.342.3777a2.9774 2.9774 0 01-1.326-2.475c0-.5545.1447-1.0608.4045-1.5a8.445 8.445 0 006.1339 3.1098c-.4205-2.0223 1.0902-3.659 2.9063-3.659.8571 0 1.6285.359 2.1723.9375.6723-.1258 1.3152-.3776 1.8884-.7151a2.9609 2.9609 0 01-1.3072 1.6366c.6-.0643 1.1786-.2304 1.7143-.4634-.4044.5946-.9107 1.1223-1.4919 1.5428z" fill="#B8CAE0"/></svg>