<svg xmlns="http://www.w3.org/2000/svg" width="179" height="181"><path d="M82.015 27.544C78.694 29.363 76.01 30 71.665 30c-5.319 0-6.158.305-9.015 3.277-1.732 1.802-3.9 4.699-4.818 6.437-.917 1.739-3.462 4.077-5.655 5.196C46.11 48.005 44 51.294 44 57.654c0 4.066-.734 6.76-3 11.006-1.65 3.092-3 6.132-3 6.756 0 .624 1.336 3.823 2.969 7.109 2.144 4.316 2.977 7.451 3 11.291.04 6.813.916 8.326 6.981 12.058 2.785 1.714 6.184 4.953 7.709 7.346 4.643 7.285 6.105 8.319 11.257 7.964 3.457-.239 6.238.437 11.312 2.75 3.7 1.686 7.637 3.066 8.747 3.066 1.111 0 4.877-1.35 8.369-3 4.191-1.98 7.916-3 10.956-3 6.482 0 8.862-1.457 11.505-7.044 1.806-3.815 3.45-5.527 7.579-7.889 6.099-3.49 7.614-6.146 7.621-13.364.004-3.774.682-6.302 2.469-9.203 3.149-5.113 3.156-9.323.026-15.5-1.734-3.421-2.5-6.562-2.5-10.244 0-6.361-1.489-8.786-7.594-12.364-2.821-1.653-5.771-4.623-7.901-7.952-4.165-6.51-5.791-7.432-13.189-7.471-4.394-.024-6.794-.634-9.816-2.495-5.054-3.113-9.709-3.092-15.485.07m3.485.092c-1.65.893-4.125 2.237-5.5 2.988-1.375.75-4.975 1.373-8 1.385-6.661.026-7.251.369-11.311 6.574-1.763 2.695-5.411 6.343-8.106 8.106-6.197 4.055-6.549 4.657-6.568 11.23-.011 4.155-.715 6.66-3.015 10.735-3.674 6.51-3.696 7.486-.303 13.258 1.961 3.335 2.849 6.494 3.25 11.565l.553 6.977 5.85 3.867c3.218 2.127 6.593 5.268 7.5 6.981.908 1.713 2.853 4.37 4.323 5.906 2.366 2.471 3.401 2.796 9 2.823 4.938.025 7.205.572 10.327 2.495 4.957 3.053 7.744 3.106 12.382.233 2.502-1.549 5.911-2.429 11.052-2.851 7.99-.657 8.299-.862 13.402-8.884 1.216-1.912 3.776-4.458 5.688-5.659 7.055-4.429 7.976-5.809 7.976-11.952 0-4.498.663-6.865 3.228-11.532l3.229-5.873-3.229-6.355C134.851 64.974 134 61.961 134 58.23c0-6.984-.46-7.774-6.554-11.261-4.02-2.3-6.115-4.395-8.415-8.415-3.53-6.169-4.214-6.548-11.863-6.571-4.473-.014-6.722-.642-10.668-2.983-5.782-3.43-6.922-3.571-11-1.364M56 76c0 8.222.267 10 1.5 10 1.048 0 1.5-1.056 1.5-3.5 0-3.408.104-3.5 3.941-3.5 4.684 0 5.404-.915 5.34-6.79-.058-5.291-1.132-6.174-7.531-6.195L56 66v10m23.376-9.235c-1.763 1.153-5.368 7.544-5.372 9.525-.002.984.905 3.572 2.016 5.75 1.635 3.203 2.561 3.96 4.848 3.96 2.357 0 3.145-.703 4.73-4.218 2.412-5.349 2.414-5.491.081-10.282-1.77-3.636-3.339-5.469-4.679-5.469-.275 0-1.006.33-1.624.734M112 76c0 7.535.32 10 1.299 10 .896 0 1.173-1.086.891-3.5l-.409-3.5h4.574c5.111 0 6.645-1.588 6.645-6.878 0-3.912-3.148-6.122-8.723-6.122H112v10m-15.541-3.25c-.878 3.162-1.83 6.425-2.117 7.25-1.381 3.978-1.334 6 .138 6 .836 0 1.52-.624 1.52-1.387 0-.774 1.318-1.579 2.988-1.825 2.255-.331 3.13.01 3.568 1.387.64 2.017 3.444 2.527 3.444.627 0-.66-1.139-4.935-2.532-9.5-3.079-10.095-4.746-10.702-7.009-2.552M59 72.437c0 3.417.146 3.563 3.563 3.563 3.418 0 3.551-.133 3.25-3.25-.275-2.858-.705-3.288-3.563-3.563-3.117-.301-3.25-.168-3.25 3.25m55.714-2.818c-.393.393-.714 1.989-.714 3.548 0 2.646.268 2.833 4.063 2.833 3.982 0 4.057-.065 3.75-3.25-.27-2.804-.729-3.291-3.349-3.547-1.67-.164-3.357.024-3.75.416M78.54 73.243c-1.162 2.764-1.15 3.754.08 6.699 1.942 4.648 1.86 4.635 4.292.7 2.07-3.349 2.084-3.582.429-7.053-2.113-4.431-3.055-4.499-4.801-.346m19.693 3.145c-.901 1.977-.823 2.555.409 3.028 2.203.845 2.36.767 2.343-1.166-.03-3.435-1.563-4.472-2.752-1.862" fill="undefined" fill-rule="evenodd"/></svg>