<svg xmlns="http://www.w3.org/2000/svg" width="581" height="360"><g fill="none" fill-rule="evenodd"><path fill="#BBC4EF" fill-rule="nonzero" d="M67.2452 325.7323c3.789.2764 7.5594.767 11.2929 1.4696 7.1582 1.1857 14.2664 3.1145 21.4998 3.415 12.9968.5512 25.9935 1.1774 38.9903 1.67a6935.8508 6935.8508 0 0079.0415 2.7054c26.1718.7682 52.3435 1.4584 78.5153 2.0707 26.0186.6346 52.0122 1.5531 78.0392.3507 52.1124-2.4214 104.0745-10.12 156.2872-8.7172a2.3639 2.3639 0 012.038 1.2525 38.6664 38.6664 0 009.188-14.3951c4.6775-12.9255 6.9745-36.8645-4.2348-44.9721-7.9602-5.7614-20.7732-2.1126-30.6878 9.7776 9.5972-61.5883 1.0691-83.039-8.4697-91.2552-15.4608-13.318-35.0812 6.8802-52.3797-7.1642-18.6181-15.1215-7.4339-47.9029-19.5787-87.9987a143.7079 143.7079 0 00-12.1949-28.3477C395.6479 32.0023 353.4585-5.8474 314.6352.7573c-37.796 6.446-34.3964 38.7515-75.1325 59.3588-50.5254 25.492-73.9463-1.67-97.359 26.7195-24.49 29.6585-12.7294 76.1086-40.7443 93.209-13.189 8.0493-18.6432-.4926-29.6354 8.4751-23.1453 18.8372-21.6501 75.2068-12.696 112.0713a194.0025 194.0025 0 008.1772 25.1413z"/><path stroke="#FFF" stroke-dasharray="4.45" stroke-linecap="round" stroke-linejoin="round" stroke-width="1.48" d="M276 178c8.673-2.78 16.1166-8.4923 21.0614-16.1628 8.5014-13.4062 5.5619-27.2481 4.9606-29.8372"/><path stroke="#6534FF" stroke-linecap="round" stroke-linejoin="round" stroke-width="1.63" d="M240 60c-50.3391 25.7597-73.6737-1.6875-97 27m284 7c-2.987-10.0862-7.0103-19.8089-12-29M218 335c26.079.7662 52.1581 1.4547 78.2372 2.0654 25.9265.633 51.828 1.5491 77.7628.3498"/><g opacity=".62"><path fill="#E2A3AE" fill-rule="nonzero" d="M451.2453 257.7091c12.9787 9.782 45.3167-1.9095 54.2396-22.3612 7.0915-16.2559-6.849-23.7683-2.885-45.7192 4.867-26.9842 28.6417-30.6357 35.1813-56.2548 6.1046-23.919-2.3416-51.2634-11.7076-52.7625-9.7508-1.5578-12.9871 26.2723-43.3934 56.5312-21.3162 21.2139-29.152 16.9091-37.5396 33.0813-10.3612 19.9911-6.3221 41.8247-1.154 69.7805 2.124 11.3732 3.8635 15.1503 7.2587 17.7047z"/><path fill="#6534FF" fill-rule="nonzero" d="M494.3878 214.5444c-.9617-1.608-4.014-1.5745-5.7117-1.072a18.3918 18.3918 0 00-6.0377 3.5677c-15.4708 12.6547-29.6872 45.3423-17.9545 59.898 1.9736 2.4539 5.0176 5.025 8.6135 2.6884 6.7486-4.3634 9.525-18.3664 11.2225-25.326a232.1703 232.1703 0 004.7082-24.9491c1.6725-4.1875 4.0976-8.375 5.327-12.6379a2.6584 2.6584 0 00-.1673-2.1691z" opacity=".61"/><path fill="#FCCDD3" fill-rule="nonzero" d="M565.8878 146.6231c.4934 3.35 2.977 22.3362-8.488 40.2754-13.2965 20.8035-29.1854 14.9243-50.05 34.5134-24.8034 23.2909-23.6327 51.5984-30.8496 50.6938-8.0364-.9966-18.3976-37.118-3.253-59.9315 12.3682-18.584 30.1053-10.8875 50.0834-30.4263 25.0878-24.5388 21.634-60.501 30.7743-60.233 6.205.1842 10.5536 16.7332 11.7829 25.1082z"/><path stroke="#FFF" stroke-linecap="round" stroke-linejoin="round" stroke-width="2.3" d="M460.3437 242.3159c-2.1659-46.8079 10.2693-67 22.1943-76.8323 9.1236-7.4956 18.0464-8.9612 27.2453-19.8571 13.0372-15.4519 14.5676-35.577 13.9237-49.714"/><path fill="#FCCDD3" fill-rule="nonzero" d="M465.8129 208.5144c-.5854 37.4949-.9366 59.831-8.6971 61.7907-10.5369 2.6465-37.5312-31.1299-32.2795-60.6685 3.1861-17.9392 16.1648-22.3947 26.5679-54.27 5.2433-16.0716 5.377-25.46 7.5263-25.4097 4.5241.1088 7.4092 42.545 6.8824 78.5575z"/><path stroke="#FFF" stroke-linecap="round" stroke-linejoin="round" stroke-width="2.3" d="M451.3373 259.024c-13.2213-19.6394-13.9572-33.7261-12.3432-42.813 2.3917-13.467 10.5786-19.564 15.9976-39.1615a101.9658 101.9658 0 003.6377-28.3745"/><path stroke="#FFF" stroke-linecap="round" stroke-linejoin="round" stroke-width="1.15" d="M476.3999 261.2099c-.4516-9.8658.485-24.2875 9.1988-36.85 10.562-15.2258 24.8369-16.5072 38.5431-26.9089 11.7076-8.8942 25.3637-26.2137 30.1053-63.65m-5.2684 24.5555l8.095-8.2494m-12.0756 19.8655l-.7777-11.5742m-1.8816 18.4166l15.5627-10.3599m-22.9636 19.2793l1.2627-10.9126m-7.3256 18.4668l18.3392-3.5677m-26.4425 10.452l3.3032-11.6161m-14.8185 17.847l10.2191.5947m-15.638 2.1775l3.2948-12.9729m-14.116 19.8823l10.8714-1.4573m-16.9426 7.6464l1.9317-12.9645"/></g><path stroke="#6534FF" stroke-linecap="round" stroke-linejoin="round" stroke-width="1.63" d="M508 184c4.8336-26.98 28.4451-30.6309 34.9397-56.246 6.071-23.9151-2.3171-51.2551-11.6272-52.754"/><g opacity=".62"><path fill="#FCCDD3" fill-rule="nonzero" d="M177.2683 283.7044c-12.9654 9.734-45.2495-1.9101-54.1491-22.2789-7.0797-16.1899 6.8375-23.6634 2.8802-45.5336-4.8588-26.8747-28.594-30.5114-35.1226-56.0182-6.1029-23.822 2.3293-51.0637 11.688-52.5484 9.743-1.5514 12.9738 26.1658 43.3294 56.3018 21.2556 21.1278 29.0783 16.8405 37.4269 32.9554 10.344 19.9016 6.3116 41.655 1.1521 69.489-2.0788 11.3187-3.8237 15.0889-7.2049 17.6329z"/><path stroke="#FFF" stroke-linecap="round" stroke-linejoin="round" stroke-width="2.3" d="M168.185 268.3653c2.1623-46.618-10.252-66.7282-22.1655-76.5205-9.1084-7.4652-18.0164-8.9249-27.1915-19.7766-13.0239-15.3891-14.535-35.4242-13.9005-49.5289"/><path fill="#FCCDD3" fill-rule="nonzero" d="M84.1728 216.6176c-41.8099-22.871-66.7222-36.4502-73.76-29.0935-9.5091 9.9342 10.8615 60.9729 46.844 73.6679 21.8317 7.7154 34.9057-3.8452 76.6655 4.6209 21.0552 4.2706 31.516 10.0092 32.8017 7.607 2.6966-5.0964-42.4026-34.8654-82.5512-56.8023z"/><path stroke="#FFF" stroke-linecap="round" stroke-linejoin="round" stroke-width="2.93" d="M19.279 200.9448c13.3995 26.9248 28.5105 36.5587 39.5641 40.4623 16.3884 5.797 28.2685.5672 53.3227 6.848a129.2697 129.2697 0 0133.6616 13.7543"/><path fill="#6534FF" fill-rule="nonzero" d="M114.7372 201.3202c.5927-1.7683 3.5815-2.3772 5.343-2.2437a18.245 18.245 0 016.6372 2.177c17.7659 9.05 38.5373 37.8765 30.1636 54.5168-1.411 2.811-3.807 5.9472-7.8393 4.4291-7.5138-2.811-13.1658-15.848-16.2882-22.2788a230.4976 230.4976 0 01-9.8263-23.2965c-2.5046-3.7118-5.7606-7.2567-7.8644-11.177a2.642 2.642 0 01-.3256-2.127z" opacity=".61"/><path fill="#E2A3AE" fill-rule="nonzero" d="M29.3975 162.6846c.2254 3.3364 1.8117 22.3623 16.7808 37.4095 17.3567 17.441 31.6245 8.341 56.1194 23.0295 29.1117 17.4327 33.9372 45.2333 40.7997 42.8311 7.6223-2.6691 10.152-40.0369-9.4757-59.0294-15.9876-15.4725-31.6245-4.2122-55.2845-19.0341-29.6794-18.5922-33.8704-54.325-42.7366-52.1397-5.9944 1.4847-6.729 18.517-6.203 26.9331z"/><path stroke="#FFF" stroke-linecap="round" stroke-linejoin="round" stroke-width="1.15" d="M140.885 255.32c-1.6697-9.6924-5.6019-23.5635-16.7556-33.948-13.5248-12.5866-27.7175-10.8433-43.2877-18.0667-13.316-6.1806-30.2637-20.1518-42.7867-55.5928m10.319 22.821l-9.6427-6.3225m15.9709 16.7905l-1.678-11.4356m5.7187 17.5329l-17.3651-6.798m26.4735 13.9212l-3.5315-10.3596m11.0369 16.4235l-18.6425.4004m28.0013 4.5959l-5.6687-10.6098m18.2167 14.2464l-9.8347 2.7276m15.7121-1.1761l-5.9526-11.936m17.9663 16.3734l-10.9117.8758m18.1416 3.8702l-4.6168-12.2112"/></g><path fill="#BBC4EF" fill-rule="nonzero" d="M515.6575 259.92l-5.2544-4.7147h-5.5635l4.4441-16.6597 3.3415-6.664-99.5663-21.1078L377.4643 208l-33.3474 2.7738 6.3988 4.165H312.106l-5.5802-6.664s-36.714 9.4295-48.3923 13.8693-22.2455 8.3298-22.2455 8.3298a49.8987 49.8987 0 00-14.7441 1.3828s-31.1505 7.2136-42.269 12.7613c-10.2583 5.1062-27.5669 17.7593-30.2484 19.7084H148l3.3414 5.2728 3.0574 4.998-.8353 6.9387-1.111 6.6639.2923.1166v.1583l9.4563 3.8817h37.3405c.1085.175.2255.3498.3424.5164l-.192-.5164h.2505C204.7885 299.629 212.9637 304 221.7203 304c8.7566 0 16.9318-4.371 21.7778-11.6436h184.497l.3592.5164c5.0507 7.185 13.388 11.3538 22.1835 11.092 8.7955-.2617 16.8686-4.9188 21.4806-12.3914l30.0729-13.1445 10.5673-5.5477v-4.4315L516 260.12l-.3425-.2z"/><path fill="#6535FF" fill-rule="nonzero" d="M221.728 233.0447s-31.0905 7.268-42.1877 12.8575C168.443 251.4916 149 266.0443 149 266.0443l6.1114 10.0711-1.6675 13.9737 9.438 3.9109h307.5537l31.6825-13.9736 10.5469-5.5895v-4.4648l3.335-8.3926-5.5444-5.0356h-5.5945l4.4356-16.7851 3.335-6.714-99.3747-21.25L377.731 209l-33.2834 2.7947 6.3866 4.1963h-38.3359l-5.5694-6.714s-36.6433 9.5004-48.2991 13.9736c-11.6559 4.4732-22.2028 8.3926-22.2028 8.3926a49.3528 49.3528 0 00-14.699 1.4015z" opacity=".54"/><path fill="#4020C6" fill-rule="nonzero" opacity=".54" d="M209.486 260L164 265.472 180.097 292l30.903-.271z"/><path stroke="#FFF" stroke-linecap="round" stroke-linejoin="round" stroke-width="2.19" d="M313 215.6243L307.448 209s-36.5278 9.3734-48.147 13.7868c-11.619 4.4134-22.1327 8.2803-22.1327 8.2803a49.6879 49.6879 0 00-14.6694 1.3746s-30.9926 7.1707-42.0548 12.6855C169.3818 250.6419 150 265 150 265M508.678 239l3.322-6.72L413 211"/><path fill="#4020C6" fill-rule="nonzero" d="M244 240.9997s20.0245-11.3612 32.7818-15.353c12.7573-3.9917 36.111-9.6467 36.111-9.6467h54.4417L414 228.4956l-60.5492 3.4118L263.9995 245 244 240.9997z" opacity=".54"/><path fill="#4020C6" fill-rule="nonzero" opacity=".54" d="M263.761 284L256 253.314l7.761-9.485L353.586 231h7.228l7.186 7.81-5.546 5.019-11.092 31.808 2.224 5.573z"/><path fill="#4020C6" fill-rule="nonzero" opacity=".54" d="M250.401 285.033l-25.534-1.106L224 293h246.484l31.645-13.746 10.545-5.49v-4.4l3.326-8.248-.3-.272-10.52 2.749-9.437-4.4-21.09 11.541-40.523-14.29L400.269 246l-19.982 28.037-27.193 7.141-89.922 2.749z"/><path stroke="#FFF" stroke-linecap="round" stroke-linejoin="round" stroke-width="2.19" d="M471 293l31.286-13.796 10.426-5.51v-4.416L516 261M353 281l-89.094 2.852-13.28 1.148H245M395 244.1l-8.733-1.1-12.001 23.682L353 281l26.722-7.155"/><path fill="#4020C6" fill-rule="nonzero" opacity=".54" d="M148 265l15.262 1.127L174 284.037 162.133 293l-9.609-3.918 2.258-13.437z"/><circle cx="223" cy="278" r="26" fill="#FFF" fill-rule="nonzero"/><circle cx="450" cy="278" r="26" fill="#FFF" fill-rule="nonzero"/><path fill="#6534FF" fill-rule="nonzero" d="M426.86 283.4228c-.0035-11.3795 7.334-21.4453 18.124-24.8632 10.7902-3.4179 22.5372.6027 29.016 9.931-3.6654-9.3404-12.34-15.7312-22.2987-16.4276-9.9586-.6964-19.429 4.4253-24.344 13.1657-4.9149 8.7405-4.3999 19.544 1.324 27.7713a26.0937 26.0937 0 01-1.8213-9.5772zm-228.0102-.0064c-.0035-11.3872 7.3356-21.4597 18.128-24.8799 10.7924-3.4201 22.542.6031 29.0222 9.9377-3.674-9.3355-12.3477-15.7186-22.3012-16.4117-9.9534-.6932-19.418 4.427-24.3346 13.1642-4.9165 8.7373-4.4112 19.5394 1.299 27.7733a26.1217 26.1217 0 01-1.8134-9.5836z" opacity=".18"/><circle cx="222" cy="279" r="13" fill="#BBC4EF" fill-rule="nonzero"/><circle cx="450" cy="279" r="13" fill="#BBC4EF" fill-rule="nonzero"/><path stroke="#FFF" stroke-linecap="round" stroke-linejoin="round" stroke-width="2.19" d="M264 245l89-13M511 261.452l-6.748 2.04-9.248-4.492L479 268M148 265l15.262.562L174 284M287 228l6 7m1-11l9 9m-22 0l2 2m2 3l1 1m106-10.17l100-.66M255 243l-33-11"/><path fill="#91A0D8" fill-rule="nonzero" d="M97.2158 329.3672c-29.7037-22.1275-39.9489-24.8526-38.9585-32.6253.5576-4.3098 4.3361-8.2758 8.2228-9.064 9.2382-1.8698 19.8247 14.0446 19.9745 13.8853.1498-.1593-35.1883-33.9166-28.6467-45.4541 1.9808-3.4881 7.4904-4.4524 11.4104-4.008 19.9744 2.2807 28.7549 45.278 33.8317 43.9532 4.0698-1.0732-2.5884-28.4413 3.7202-30.94 4.3611-1.7356 15.8131 8.1082 17.1115 19.629 1.573 13.969-13.05 19.134-13.3663 38.6623-.0665 3.6474.358 8.6448-2.3303 10.1624-3.0628 1.7273-8.2062-2.1465-10.9693-4.2008z"/><path stroke="#7863CE" stroke-linecap="round" stroke-linejoin="round" stroke-width="2.19" d="M67 296.0108L100 316c-4.0202-10.6092-26.5628-51-26.5628-51m37.6373 12s2.437 5.5218 1.8277 10.578c-.6092 5.0561-6.2467 12.474-6.653 16.1497C105.8433 307.4033 103 321 103 321"/><path fill="#BBC4EF" fill-rule="nonzero" d="M0 329h581s-186.455 20.6184-317.9645 18.898C131.5261 346.1777 0 329 0 329z"/><ellipse cx="219.5" cy="352.5" fill="#BBC4EF" fill-rule="nonzero" rx="50.5" ry="7.5"/><ellipse cx="360.5" cy="345.5" fill="#BBC4EF" fill-rule="nonzero" rx="50.5" ry="7.5"/><path stroke="#7863CE" stroke-linecap="round" stroke-linejoin="round" stroke-width="1.63" d="M440 305.5h44"/><path fill="#FFF" fill-rule="nonzero" d="M305.2174 95s3.6852 6.5858 4.9108 11.115c1.2256 4.5294 27.3285 32.1797 37.4235 35.0355 10.095 2.8557-.1491 9.8495-.1491 9.8495s-15.1549-5.7365-25.7633-19.7657c-10.6084-14.0291-15.1549-20.59-15.1549-20.59S304 105.2909 304 102.4102c0-2.8808 1.6563-.8326 1.6563-.8326a8.6847 8.6847 0 01-.439-6.5775z"/><path stroke="#6534FF" stroke-linecap="round" stroke-linejoin="round" stroke-width="1.63" d="M305 95s3.8324 6.4404 5.107 10.8697C310.8735 108.516 320.8463 119.2065 331 128"/><path fill="#FFF" fill-rule="nonzero" d="M382.36 249.2287s0 5.7585 2.8567 14.4048c2.8567 8.6462 12.6653 36.6153 14.7046 49.7968C401.9607 326.6118 404 341 404 341h-7.7528s-19.6007-62.1462-28.179-78.6065C359.4896 245.9333 361.1244 234 361.1244 234l21.2355 15.2287z"/><path fill="#FFF" fill-rule="nonzero" d="M351.7954 252.6056s-4.5535 49.6046-9.107 63.2448C338.135 329.4906 334 339.821 334 339.821l6.621 4.179s30.6354-71.9203 32.2927-91.3526c1.6574-19.4323-21.1183-.0418-21.1183-.0418z"/><path fill="#6534FF" fill-rule="nonzero" d="M383 257.7975a44.9447 44.9447 0 01-1.3816-9.399L360.592 233s-.6621 5.0487 1.1364 13.0677c-3.2802 1.8513-6.3793 4.024-9.2542 6.4876 0 0-.1635 1.9017-.4742 5.0487 3.27-.7152 6.4829-1.0939 8.1751-.4712 3.0575 1.136 15.3447.9172 22.8249.6647z" opacity=".18"/><path stroke="#6534FF" stroke-linecap="round" stroke-linejoin="round" stroke-width="1.63" d="M373 257s-14.959 51.4909-22 64m41 7s-16.2163-49.7858-18.7229-54.7502A62.8901 62.8901 0 01370 266"/><path fill="#F9879A" fill-rule="nonzero" d="M356.5398 123.056c4.8582.1005 8.1826 4.0674 9.02 5.3813.9119 1.4395.5803 2.1843.829 4.0506.1013.7277.2452 1.4487.431 2.1592 1.6084 6.6366 2.4126 9.959 3.6893 10.7625 3.4322 2.1425 11.1754-1.95 11.4822-5.7997.1243-1.5566-1.0778-1.8328-3.6893-7.03-.3647-.728-1.0611-2.2847-2.487-5.3812a38.9635 38.9635 0 00-2.8685-5.7997 11.6815 11.6815 0 00-3.2747-3.7242c-1.7087-1.1198-3.7083-1.7024-5.7453-1.6738-7.0302-.0586-12.4355 6.9546-11.8883 7.8668.257.4436 1.6249-.8703 4.5016-.8117z"/><path fill="#FFF" fill-rule="nonzero" d="M360 132h10v17h-10z"/><path fill="#52D2BB" fill-rule="nonzero" d="M344.868 138L335 157.8397l16.444 4.1284s-2.0535 4.5462 0 7.0283c2.0533 2.482 6.5758 8.6495 6.5758 11.1566 0 2.0559-10.6578 50.577-14.3655 70.8512-.285 1.4367.1992 2.9184 1.2762 3.9053 1.077.9869 2.5894 1.3347 3.9861.9167 4.7054-1.312 10.6661-2.624 13.2184-1.6714 3.1923 1.17 16.4272.8942 23.9342.6268a5.0438 5.0438 0 003.5877-1.6875 5.0978 5.0978 0 001.2757-3.7696l-4.1567-44.7688s8.6376-23.1408 3.6995-37.6068c-4.9382-14.4661-20.9665-23.9764-20.9665-23.9764s-3.6994 2.507-7.3989 2.0725c-3.6995-.4346-17.242-7.045-17.242-7.045z"/><path fill="#41B59F" fill-rule="nonzero" d="M390.9868 249.313l-4.0825-44.8015a96.9465 96.9465 0 002.972-10.3035c-1.9024-2.6595-3.911-4.4492-5.7972-4.1816-4.793.711-7.3894 14.5185-8.0753 21.1003-1.086 10.3704 1.633 12.1183-.8165 18.1983-3.119 7.8614-8.6959 7.644-11.7088 15.7144a26.579 26.579 0 00-1.4779 8.9235c.2277.0387.4517.0975.6695.1756 3.1354 1.1709 16.1343.895 23.5075.6273 1.3541-.0397 2.6337-.6445 3.5418-1.6742.9082-1.0296 1.366-2.3947 1.2674-3.7786z"/><path fill="#6535FF" fill-rule="nonzero" d="M362.6252 219.0922l9.6996 5.6103c.9694.5607 1.3016 1.8005.7424 2.7708l-2.3042 3.9984c-.5598.9714-1.8011 1.305-2.7725.7452a1.7045 1.7045 0 01-.0028-.0016l-9.6996-5.6102c-.9694-.5607-1.3016-1.8006-.7424-2.7709l2.3043-3.9984c.5598-.9714 1.801-1.305 2.7724-.7452l.0028.0016z"/><path fill="#FFF" fill-rule="nonzero" d="M377.786 193s-2.399 7.416-3.534 13.291c-1.135 5.875-4.9698 18.1277-6.2423 19.3143-1.2726 1.1865-3.0352 1.8457-3.0094 3.5679.0258 1.7221 1.7196 2.9499 3.0094 3.3536 1.2897.4038 3.8262.824 4.2475 0 .4214-.824 1.7197-6.5178 1.7197-6.5178s10.9972-25.5436 11.023-29.062c.0258-3.5185-7.214-3.947-7.214-3.947z"/><path fill="#52D2BB" fill-rule="nonzero" d="M372 159s6.6006 17.5423 5.3573 23.2495c-1.2434 5.7072-3.7134 14.2763-3.7134 14.2763L391.8019 199s1.452-27.5381-3.5048-36.099"/><path stroke="#6534FF" stroke-linecap="round" stroke-linejoin="round" stroke-width="1.63" d="M375.0956 170s2.9596 6.2101 1.7108 12.0017C375.5575 187.7934 373 196.4892 373 196.4892L384 199"/><path fill="#41B59F" fill-rule="nonzero" d="M358 149l-10 12.327 3.367.673z"/><ellipse cx="362" cy="131" fill="#FFF" fill-rule="nonzero" rx="8" ry="11"/><path fill="#F9879A" fill-rule="nonzero" d="M351.045 126.879c.6357 2.433 2.8285 4.1273 5.3335 4.121 2.2597-.217 2.4508-2.636 5.3418-3.7122 3.4643-1.2846 6.073 1.0928 6.9868 0 1.2129-1.4348-1.4373-7.858-6.1643-9.076-5.508-1.4264-12.154 4.6715-11.4978 8.6673z"/><ellipse cx="369.5" cy="128.5" fill="#FFF" fill-rule="nonzero" rx="2.5" ry="3.5"/><path fill="#F9879A" fill-rule="nonzero" d="M373.0024 126a23.7175 23.7175 0 004.9534 2.4938c3.759 1.3466 5.6802.956 6.6074 2.4937.895 1.8501.3814 4.0705-1.2363 5.345-2.1718 1.5877-5.2458-.1163-5.7804-.4156-4.611-2.6018-4.5608-9.3516-4.5441-9.9169z"/><circle cx="371.5" cy="132.5" r="1.5" stroke="#6534FF" stroke-linecap="round" stroke-linejoin="round" stroke-width="1.63"/><path fill="#41B59F" fill-rule="nonzero" d="M365.879 178.5143c-.5102-1.0558-1.8592-.2787-5.128-1.6893-4.6608-1.985-6.8745-5.6847-8.751-6.825 2.2224 2.6607 6.6066 8.5819 6.6066 10.9808 0 .4476-.5016 3.0323-1.3317 7.0192 4.5485-4.6964 9.5725-7.4331 8.604-9.4857z"/><path stroke="#6534FF" stroke-linecap="round" stroke-linejoin="round" stroke-width="1.63" d="M370 143s-4 2.3617-8 1.9523M346.7516 236c-1.066 5.7002-1.9918 10.8644-2.6764 14.9141-.2667 1.4626.1865 2.971 1.1944 3.9757 1.0079 1.0047 2.4233 1.3588 3.7304.9333M335 158l16.4298 4.2554s-2.0517 4.6862 0 7.2446C353.4814 172.0584 358 178.4157 358 181"/><path fill="#F9879A" fill-rule="nonzero" d="M340.4312 344.0048l-5.8085-2.895a1.0218 1.0218 0 00-.6868-.0845l-15.1276 3.3762c-.5002.1082-.8438.5667-.8054 1.0748.0385.508.4472.9102.958.9425l20.9361 1.5784a1.029 1.029 0 00.7754-.271 1.0191 1.0191 0 00.327-.7503v-2.0257a1.0122 1.0122 0 00-.5682-.9454zM403.1645 341h-6.8034a.9214.9214 0 00-.3107.0551l-10.5746 3.5385c-.3169.0988-.5174.4396-.4685.796.049.3566.3323.6178.6616.6102h19.2595c.3642.0019.7042-.1998.9015-.5349.1974-.335.2248-.7572.0728-1.1194l-.84-2.0036c-.34-.8135-1.0807-1.3371-1.8982-1.3419z"/><path stroke="#7863CE" stroke-linecap="round" stroke-linejoin="round" stroke-width="1.63" d="M249 305.5h-84m90 8h-42"/><path fill="#FFF" fill-rule="nonzero" d="M302.6237 92.0652s-5.3369 3.4164-5.7519 5.4919c-.415 2.0755-2.8718 11.0265-2.8718 11.0265L297.1374 112s3.0212-3.4164 3.843-3.835c.8216-.4184 2.05-5.9189 1.66-6.7644-.3902-.8456-2.0585.854-2.0585 1.2726 0 .4185-2.05-.427-.4067-4.6464 1.6434-4.2192 2.49-4.6463 2.49-4.6463s.7802-1.7338-.0415-1.3153z"/><path fill="#6535FF" fill-rule="nonzero" d="M202.5144 158s-13.862 11.2059-14.6697 18.6709c-.8076 7.465-3.5355 37.7443 8.4145 34.0118C208.2092 206.9502 218 195.3333 218 195.3333L202.5144 158zm23.1196 53l-23.885 5.5936L196 349.3368 200.86 352l24.749-114.5599s4.4116-3.1057 4.8602 0c.4486 3.1057 11.4814 111.8716 11.4814 111.8716h3.9794s7.07-72.3742 7.07-80.3639c0-7.9896-2.5588-57.547-2.5588-57.547L225.634 211z"/><path fill="#FFF" fill-rule="nonzero" d="M201.6482 217l4.0785 6.0383s2.8649 6.0383 0 6.9021C202.8618 230.8043 197 222 197 221.1274c0-.8727 4.6482-4.1274 4.6482-4.1274zM221 133h14v20h-14z"/><path fill="#F9879A" fill-rule="nonzero" d="M295.2732 106.475L294.0114 105s-23.5556 25.2849-27.6918 29.4334l-13.2193 13.2584c-7.4452 2.5142-17.3638-4.5592-17.3638-4.5592s-2.8912 3.7295-7.019 3.7295c-4.128 0-7.4453-3.7295-7.4453-3.7295l-9.1917 4.8944-1.2116.6453-9.8434 5.238s-.4094 1.6762-2.8912 10.7778c-3.451 12.6885-1.7882 48.2817-1.337 56.6625a.687.687 0 00.4635.6127.6839.6839 0 00.7398-.202c.4847-.5699 1.103-1.2571 1.7882-1.9444 1.6712-1.6761 6.6096-2.8997 6.6096-2.8997a77.7126 77.7126 0 0045.4569-3.7378c1.2367-3.4865 3.3424-8.8837 3.3424-15.7476 0-.947.0668-2.5142.1671-4.4586.259-4.0227-.8356-17.8008 6.4843-27.5393 8.7822-8.0455 23.0376-21.8738 26.405-29.7602.3844-.9051 2.4484-5.7408 5.9662-13.845L299 110.8078l-3.7268-4.3329z"/><path fill="#6535FF" fill-rule="nonzero" d="M206.2393 177S209 164.9097 209 161.571V149l-6 2.9172c1.0287 2.596 1.8167 5.267 2.3558 7.9843 0 0 .8282 4.2156.9203 17.0985h-.0368z"/><path stroke="#6534FF" stroke-linecap="round" stroke-linejoin="round" stroke-width="1.63" d="M202 218l5-30"/><path fill="#D3637B" fill-rule="nonzero" d="M293 123.9414a4.591 4.591 0 00-2.9156-1.9252c-4.7482-.5228-4.9982 11.692-17.302 22.5707-9.3215 8.298-13.2617 8.1404-17.302 17.235-1.566 3.5185-.833 4.3898-2.0658 11.4929-2.4158 13.6586-7.7305 17.6334-9.8797 26.2633a31.7798 31.7798 0 00-1.5245 8.0326 26.6809 26.6809 0 001.108 8.3893l8.2386-2.8794s3.3321-8.2068 3.3321-15.592c0-.9378.0666-2.4895.1666-4.4146.2582-3.9831-.833-17.6251 6.4643-27.2675 8.7551-7.966 22.9665-21.6579 26.3236-29.4663.3332-.8465 2.1992-5.1863 5.3564-12.4388z"/><path fill="#6534FF" fill-rule="nonzero" d="M235 137.8164l-.2542 1.4858s-4.3834 4.8499-9.5383 1.5443C220.0526 137.541 220 133 220 133l15 4.8164z" opacity=".18"/><ellipse cx="230.5" cy="128" fill="#FFF" fill-rule="nonzero" rx="10.5" ry="13"/><path fill="#6535FF" fill-rule="nonzero" d="M230.4794 110.6082c-3.2077-.5442-4.4292-.7688-5.094 0-.4488.5269-.4155 1.2524-.3408 2.4703.0872 1.7331.5533 3.4228 1.3629 4.9407 2.4431 3.835 11.0856 4.1114 16.2877 0 2.1523-1.7275 5.1688-5.2948 4.0719-7.7738-.7645-1.7275-3.4154-2.5912-5.4265-2.1162-2.2021.5528-2.1107 2.4099-4.4126 3.1786-.6316.216-1.047.216-6.4486-.6996z"/><path fill="#6535FF" fill-rule="nonzero" d="M221.4597 113.0634c-2.4844.5706-3.6663 3.197-4.227 4.4555-3.4507 7.7531 1.3199 17.6795 2.4586 17.478.9317-.1593.5435-7.1908 1.061-7.1908.371 0 .1812 3.5493 2.1136 4.4555a1.8209 1.8209 0 001.7253 0c.8627-.7552-.8022-2.7606 0-4.7996.3335-.6572.8175-1.2313 1.4148-1.6781 2.588-2.7102 2.8468-9.1376-.3537-11.6548-1.1847-.9062-2.7035-1.2922-4.1926-1.0657z"/><ellipse cx="220.5" cy="128" fill="#FFF" fill-rule="nonzero" rx="2.5" ry="3"/><path fill="#4B28DD" fill-rule="nonzero" d="M231.0008 236a.5498.5498 0 000 .0591c.307 2.2209 5.8732 57.4723 9.125 89.9409 1.4435-12.8017 2.2647-24.7842 2.3974-26.6842.6305-9.1537.979-19.8696-1.2277-32.9921-2.107-12.6412-6.7857-28.5166-10.2947-30.3237z"/><path stroke="#7863CE" stroke-linecap="round" stroke-linejoin="round" stroke-width="1.63" d="M445 313.5h-17m-7-8h-10"/><path fill="#F9879A" fill-rule="nonzero" d="M194.0287 355.011l1.2139-4.4551c.1231-.3999.5456-.6342.9591-.532l18.2074 4.455c.3823.0974.6324.4564.5852.8405-.0471.384-.377.6748-.772.6806h-19.4296c-.2482-.0016-.4815-.1162-.6312-.31a.7684.7684 0 01-.1328-.679zm47.9859-2.0324l.654-3.9786h4.0987l12.4944 3.1646c.4573.0581.7854.5147.7328 1.0198-.0526.5052-.466.8676-.9232.8095h-16.295c-.2314.002-.4514-.111-.5991-.3078-.1477-.1968-.2074-.4566-.1626-.7075z"/><path stroke="#6534FF" stroke-linecap="round" stroke-linejoin="round" stroke-width="1.63" d="M455 133s-6.6529 37.5266-16 47M87.0629 132S84.2649 178.575 116 192m-89-39.7275s1.667-18.44 7.8353-17.214C41.0034 136.2845 47.5883 166.8438 61 170M8 200s7.1963 38.0492 35 54m201-105.8229c5.315 1.5862 8.5505.5178 10.0726-.2054 1.3308-.6329 2.1875-1.389 5.764-4.8736 2.4454-2.3916 4.5332-4.4626 6.1634-6.0981"/><circle cx="424" cy="129" r="9" fill="#F9879A" fill-rule="nonzero"/><circle cx="409.5" cy="107.5" r="4.5" fill="#F9879A" fill-rule="nonzero"/><ellipse cx="435" cy="103.5" fill="#62BCF9" fill-rule="nonzero" rx="13" ry="13.5"/><path fill="#F9879A" fill-rule="nonzero" d="M473.0007 251.2712l.0733-10.7724c.009-.8338.66-1.5035 1.4573-1.4988l8.0276.0596c.3844.0023.7521.1642 1.0224.45.2702.2859.4208.6723.4187 1.0744l-.0814 10.7724c-.0014.2574-.1484.4894-.3745.591-.226.1016-.4882.0535-.6677-.1226l-3.973-3.8917a.5984.5984 0 00-.8142 0l-4.03 3.8235c-.1802.1909-.4541.2458-.6889.138-.2348-.1076-.3818-.3555-.3696-.6234z"/><path fill="#52D2BB" fill-rule="nonzero" d="M110.0019 92.2712l.0814-10.7723c.0021-.4013.1571-.785.4306-1.0664.2735-.2813.643-.437 1.0266-.4324l8.0267.0596c.7971.0094 1.4373.6905 1.4328 1.5243l-.0733 10.7724c-.0014.2574-.1484.4894-.3744.591-.226.1016-.4882.0535-.6676-.1226l-3.9727-3.8917a.606.606 0 00-.814 0l-4.0216 3.8235c-.1778.2046-.4603.2684-.703.1588-.2427-.1096-.392-.3685-.3715-.6442z"/><path fill="#FFF" fill-rule="nonzero" d="M301.9837 84.9999c-1.004.0012-1.9761-.3613-2.7454-1.0236l-13.7185-11.8304c-.9656-.8324-1.5222-2.0615-1.5198-3.3561v-25.213c-.002-.81.5019-1.5303 1.2501-1.7871 10.8729-3.7196 22.627-3.7196 33.4998 0 .7466.259 1.2495.9778 1.25 1.7871v25.213c.0027 1.2965-.5574 2.5268-1.5278 3.3561l-13.7186 11.8304c-.7757.668-1.7575 1.0308-2.7698 1.0236z"/><path fill="#52D2BC" fill-rule="nonzero" stroke="#6535FF" stroke-linecap="round" stroke-linejoin="round" stroke-width=".16" d="M304.933 65.938L299 62l5.841 9L311 62.243z"/><path fill="#52D2BC" fill-rule="nonzero" stroke="#6535FF" stroke-linecap="round" stroke-linejoin="round" stroke-width=".16" d="M299.008 62.366l.034.009L304.987 66l5.971-3.397h.034l-.026-.017.034-.009L305.241 52 299 62.349l.025.017z"/><path fill="#6535FF" fill-rule="nonzero" d="M320.6618 43.7298a52.1891 52.1891 0 00-33.3154 0c-1.406.4738-2.352 1.805-2.3464 3.3013v23.9341c.0039 1.7192.7575 3.3495 2.0603 4.4567l13.228 11.216a5.7385 5.7385 0 007.4234 0l13.228-11.216c1.3028-1.1072 2.0565-2.7375 2.0603-4.4567V47.0145c-.0002-1.488-.9412-2.81-2.3382-3.2847zm.6786 27.1777c.002 1.2273-.5374 2.392-1.4716 3.1774l-13.22 11.2078a4.0585 4.0585 0 01-5.2977 0L288.1313 74.085c-.9343-.7855-1.4736-1.95-1.4716-3.1774v-23.893c.0174-.753.5017-1.4137 1.21-1.6506a50.431 50.431 0 0132.2607 0c.7097.2348 1.195.8968 1.21 1.6506v23.893z"/><path fill="#BBC4EF" fill-rule="nonzero" d="M324 71.109V46.9968c.007-1.5078-.9507-2.8505-2.3764-3.3316A53.4198 53.4198 0 00307.698 41a19.0722 19.0722 0 013.0743 7.1962 54.0555 54.0555 0 01.9389 9.4783c.1365 1.7098.064 3.43-.216 5.1222-.831 4.0729-3.9302 7.2962-5.4174 11.1691a19.1169 19.1169 0 00-.723 9.9947A30.8781 30.8781 0 00306.3604 88a5.737 5.737 0 002.1021-1.1244l13.4437-11.319A5.9025 5.9025 0 00324 71.109z" opacity=".44"/><path fill="#070707" fill-rule="nonzero" d="M291.4371 68l-9.1571-2.5903c-.3418-.0023-.6686-.1438-.9087-.3933-.24-.2495-.3736-.5866-.3713-.937v-4.7666c.0023-.3505.1402-.6857.3835-.932.2433-.2461.572-.3831.9136-.3808l9.1486 2.5903c.2204-.0018.4207.1316.5086.3389.088.2073.0467.4485-.1049.6127l-3.29 1.0749c-.1925.2207-.1925.5545 0 .7753l3.2729 3.6564a.5841.5841 0 01.0954.6037c-.0845.2033-.2754.3386-.4906.3478zm25.1583-7.4623L325.724 58c.3407.0023.6665.1448.9058.3961.2393.2513.3725.5907.3702.9437v4.8004c0 .3537-.1368.6927-.3798.9412-.243.2484-.572.3856-.9133.3809L316.544 68c-.2182-.0017-.4146-.1373-.5002-.3453-.0855-.208-.0437-.4488.1063-.613l3.2798-3.6557c.1919-.2223.1919-.5585 0-.7809l-3.2627-1.109c-.146-.1716-.1805-.4164-.0878-.624.0928-.2077.2952-.3388.516-.3344z" opacity=".18"/><path fill="#FCCDD3" fill-rule="nonzero" d="M291.4371 66H282.28c-.3418-.0023-.6686-.1443-.9087-.3947-.24-.2504-.3736-.5887-.3713-.9404v-7.3475c.0023-.3517.1402-.6881.3835-.9352.2433-.247.572-.3845.9136-.3822h9.1486c.2204-.0018.4207.132.5086.34.088.2081.0467.4502-.1049.615l-3.29 3.6516c-.1913.2186-.1913.5506 0 .7692l3.2729 3.6693a.5878.5878 0 01.0954.6059c-.0845.204-.2754.3398-.4906.349zm25.1583-10h9.1286c.3407.0023.6665.1443.9058.3947.2393.2504.3725.5886.3702.9404v7.3474c0 .3525-.1368.6903-.3798.9378-.243.2476-.572.3843-.9133.3796l-9.1629-.0177c-.2182-.0017-.4146-.1368-.5002-.3441-.0855-.2073-.0437-.4472.1063-.6108l3.2798-3.6427c.1919-.2216.1919-.5566 0-.7781l-3.2627-3.6693a.5898.5898 0 01-.0715-.6077c.0913-.1999.2856-.328.4997-.3295z"/><path stroke="#6535FF" stroke-linecap="round" stroke-linejoin="round" stroke-width=".87" d="M287.5497 61.723l3.3105 3.3972c.1446.1552.1804.3761.0916.5654-.0888.1892-.2858.312-.5044.3144h-9.1662c-.342-.0022-.6692-.133-.9095-.3637-.2403-.2307-.374-.5423-.3717-.8664V58m45 9h-9.4376a.5667.5667 0 01-.517-.3427.5614.5614 0 01.1098-.6084l3.3908-3.6458a.579.579 0 000-.775L315.1817 58"/><path stroke="#BBC4EF" stroke-linecap="round" stroke-linejoin="round" stroke-width=".87" d="M289 73l12 10"/><path stroke="#F9879A" stroke-linecap="round" stroke-linejoin="round" stroke-width="1.63" d="M290 90l-12-5m12-1l-6-4m29 10l7-2m-5 6l6 2m4-5l8-1m-42 4l-11 3"/><path stroke="#6534FF" stroke-linecap="round" stroke-linejoin="round" stroke-width="1.63" d="M299 112l-4-5"/><path fill="#62BCF9" fill-rule="nonzero" d="M199.25 100h-5.5l-2.75 4.5 2.75 4.5h5.5l2.75-4.5zM219.25 15h-5.5L211 19.5l2.75 4.5h5.5l2.75-4.5zM178.502 106h-3.004L174 108.5l1.498 2.5h3.004l1.498-2.5z"/><path fill="#6534FF" fill-rule="nonzero" d="M121.8652 258.8076c9.4752-2.1548 17.1666 5.7353 18.0544 4.4571 1.2611-1.8025-12.4456-20.5242-31.5951-20.262-1.0454 0-18.0875.4425-20.9251 10.127-2.5721 8.7422 7.824 20.2538 15.59 19.8605 7.567-.3933 8.629-11.8639 18.8758-14.1826z"/><path fill="#F9879A" fill-rule="nonzero" d="M171 147.0193v-2.14c.305-.7254.6816-.9068 1.2556-.2176.574.6891 1.2556.9883 2.018.145.4753-.5168.9955-.3717 1.4708.0726.7713.7163 1.3812.7889 2.0359-.254.6547-1.0427 1.1031-.689 1.2197.381V151a12.7818 12.7818 0 01-2.87-2.3576c-.8161-.8433-1.4618-1.061-2.3677 0a6.559 6.559 0 01-2.5919 2.0674c0-.127 0-.1904-.1435-.1995v-3.3913l.0897-.0453-.1166-.0544z"/><path fill="#52D2BC" fill-rule="nonzero" d="M180.099 119.0001h-11.2095a3.3476 3.3476 0 00-2.8547 1.6774l-5.6005 9.7206a3.3603 3.3603 0 000 3.3045l5.6005 9.62A3.3476 3.3476 0 00168.8895 145h11.2095a3.289 3.289 0 002.8546-1.6774l5.6006-9.687a3.2846 3.2846 0 000-3.3046l-5.6006-9.7206a3.2887 3.2887 0 00-2.8546-1.6103z"/><path fill="#52D2BC" fill-rule="nonzero" d="M185.7657 123.6333l-10.1192-5.251c-1.0625-.5514-2.3452-.5035-3.3617.1255l-9.7 5.9546c-1.023.6236-1.6267 1.7355-1.5825 2.9145l.4191 11.1973c.0428 1.1781.7243 2.2444 1.7878 2.7972l10.1192 5.2427c1.064.5536 2.349.509 3.3702-.1172l9.7-5.9546c1.0282-.6207 1.6384-1.7325 1.5997-2.9145l-.4192-11.2056c-.051-1.1805-.7426-2.2442-1.8134-2.7889z"/><path fill="#F9879A" fill-rule="nonzero" d="M159.6485 131.3076c.5006-.3912 1.1326-.4086 1.3706.1216.5417 1.1995 1.4855.9475 2.3719.9475 7.4796 0 14.9537-.0174 22.4224-.0522.8207 0 1.7563.2347 2.2406-.9474.2216-.5476.7715-.426 1.1982-.0956.708.598.9444 1.6277.5746 2.5033-.5746 1.9991-1.108 4.007-1.5594 6.0322-.2134.9562-.673 1.1995-1.5266 1.1821h-5.7451l-13.2548-.0782h-1.543c-1.7153-.5476-3.5374.226-5.2445-.478-.0738-.313-.1395-.6172-.2134-.9214h.0985-.0985l-.2708-.9474.0903-.0522h-.115c-.0902-.3911-.1887-.7823-.2872-1.1647l.0657-.0782h-.0903l-.082-.3216v-.1739c-.3038-1.0952-.5582-2.2078-.911-3.2769-.3053-.7718-.0988-1.6641.5088-2.199z"/><path stroke="#6534FF" stroke-linecap="round" stroke-linejoin="round" stroke-width=".94" d="M163 132.5h9m8 8h-5m-4 2h2m4.5 4.5v2M165 123l5-3"/><path fill="#62BCF9" fill-rule="nonzero" d="M349 16h33v5h-33zM349 26h23v5h-23zM363 95h23v5h-23zM133 49h33v5h-33zM133 58h23v5h-23z"/></g></svg>