<svg xmlns="http://www.w3.org/2000/svg" width="396" height="324"><g fill="none" fill-rule="evenodd"><path fill="#BBC4EF" fill-rule="nonzero" d="M84.3972 150.9771c25.7615-16.7247 41.5406-5.4249 61.4618-21.662 24.2701-19.7934 11.148-44.9992 31.2573-68.6987 26.3506-31.087 92.3556-39.1493 123.45-12.681 32.4479 27.6244 6.373 75.411 47.6817 115.7227 18.8308 18.3809 31.3325 15.3685 40.795 33.2931 16.2928 30.837 2.6256 84.1609-27.0212 97.7544-36.7656 16.8746-65.7982-42.2305-127.1535-36.4618-56.812 5.3499-68.3048 59.43-112.8533 54.4302-40.8701-4.5874-83.0687-55.8927-76.2946-103.0418 3.4904-24.312 19.8522-46.4366 38.6768-58.655z"/><path fill="#6535FF" d="M262.3104 67.939a38.9055 38.9055 0 00-2.3452-3.9484c-2.846-3.7991-4.1665-8.518-3.7031-13.2344a48.2966 48.2966 0 00.0377-5.0498c.0759-4.0648-1.9612-7.8807-5.3882-10.0932a51.4816 51.4816 0 00-6.2872-3.573c-3.3957-1.6343-6.1397-4.3586-7.79-7.7342-.8801-1.7771-1.8861-3.4917-2.9046-5.2062-2.515-4.1987-6.1238-6.4577-11.097-6.4139-2.2005 0-4.401-.0438-6.6079.05-3.5546.1464-7.0633-.84-10.0156-2.8158A60.5854 60.5854 0 00200.4 6.4973c-3.9358-1.946-7.8653-2.0462-11.7823 0a37.5474 37.5474 0 00-4.2187 2.4342c-4.0427 2.8158-8.4438 4.2988-13.4233 3.7857a41.6362 41.6362 0 00-5.3756 0c-3.3811-.016-6.599 1.4457-8.8021 3.9985a33.9556 33.9556 0 00-4.4765 7.2837c-1.7419 3.6087-4.673 6.5148-8.3055 8.2348-1.6975.826-3.3385 1.777-4.9606 2.747-4.2062 2.503-6.413 6.1698-6.3501 11.1132 0 2.19-.0692 4.3802.0566 6.5765.1517 3.4878-.8318 6.9311-2.8041 9.818a58.8187 58.8187 0 00-3.5775 6.0634 12.2004 12.2004 0 00-.044 11.1883 36.3315 36.3315 0 002.7601 4.7682c2.7978 3.7685 4.1007 8.4317 3.6592 13.0968a43.4828 43.4828 0 000 5.5065c.0248 3.6894 1.8161 7.1459 4.8223 9.3048 2.1377 1.6082 4.5394 2.7595 6.8782 4.0235 2.3389 1.264 4.684 2.7533 6.1741 5.1374 2.364 3.792 4.1559 7.947 7.0983 11.3885-.264.4944-.5596.9762-.7733 1.4893-4.4514 10.5625-8.9007 21.121-13.3478 31.6751-.8352 1.7636-.4845 3.8576.8802 5.2563 1.2683 1.4163 3.2938 1.8871 5.0612 1.1764 5.4699-1.846 10.9398-3.692 16.3846-5.6317.9933-.3505 1.446-.2065 1.8861.7383 2.408 5.1186 4.8852 10.2122 7.2995 15.3245.9117 1.9335 2.276 3.0223 4.5268 2.9973 2.0122.0856 3.8424-1.1533 4.5017-3.0474 2.7664-6.564 5.5076-13.1406 8.274-19.7171 1.2134-2.891 2.452-5.7631 3.7723-8.8418.3081.6258.5345 1.0325.7105 1.4517 3.8143 9.0608 7.6285 18.1195 11.4428 27.176.7293 1.7146 1.9427 2.816 3.9106 2.966 2.2194.1628 3.9421-.6256 4.9167-2.6343 2.452-5.0998 4.8914-10.2059 7.2554-15.3495.5282-1.1513 1.05-1.4767 2.3075-1.0262 5.143 1.8772 10.3299 3.5793 15.4854 5.394 2.1629.757 4.2.682 5.7969-1.0576 1.597-1.7396 1.4775-3.842.5533-5.9884-2.6847-6.2198-5.2939-12.4648-7.9408-18.7034a8058.123 8058.123 0 00-6.9977-16.4383c1.2574-2.3278 2.5526-4.643 3.7723-6.9958 1.597-3.0599 4.0867-5.1561 7.1172-6.7268 1.8861-.9636 3.7032-1.971 5.495-3.0536 4.181-2.5342 6.3816-6.201 6.2873-11.1445-.044-2.553 0-5.0998-.044-7.6528a13.0925 13.0925 0 011.8484-6.9958c1.2574-2.1463 2.5715-4.2926 3.8352-6.4452 2.5463-4.3301 2.7916-8.7479.3647-13.222zm-90.4231 67.7743c4.6148-.2878 8.557 1.1764 12.3104 3.6794-3.7724-2.503-7.6956-3.9672-12.3104-3.6794l-1.314.0689 1.314-.0689zm41.3763.1001a10.8519 10.8519 0 00-2.5652.557 10.915 10.915 0 012.5652-.557zm6.3941-.05h-3.4768c1.1568-.0188 2.32-.0125 3.4768 0zM194.27 152.94c-4.137 9.6427-8.1735 19.3293-12.2224 29.0032-.4464 1.0576-1.1946 1.8335-2.408 1.846-1.2135.0125-2.0183-.826-2.515-1.9085-2.6029-5.4753-5.256-10.9318-7.7836-16.4508-.6287-1.4267-1.358-1.6958-2.8104-1.1827-5.6585 2.0274-11.3924 3.9422-17.0887 5.9258-1.1128.388-2.1942.6696-3.1436-.269-.9494-.9387-.8425-2.2277-.3458-3.4166 2.2948-5.444 4.6148-10.8817 6.916-16.332 2.2194-5.3 4.401-10.6376 6.6079-15.9313a4.2405 4.2405 0 011.9427.8885c-4.137 9.8117-8.2698 19.615-12.3984 29.41-.1635.3754-.2892.7634-.4464 1.1388a1.1158 1.1158 0 00.0629 1.289c.4086.463.9053.313 1.4146.1502 3.0619-.9824 6.1363-1.946 9.1982-2.9285 3.0619-.9824 6.042-1.9085 9.0285-2.9472 1.0437-.363 1.5026-.1314 1.9868.851 2.7035 5.494 5.4762 10.9505 8.2363 16.4195.3332.657.5092 1.5831 1.4712 1.5644.962-.0188.987-.9136 1.2574-1.5456 4.028-9.5238 8.054-19.0477 12.0778-28.5715.0905-.374.3138-.7029.6287-.926a3.5592 3.5592 0 01.3333 3.9233zm52.2218 13.5286c.4904 1.1514.7607 2.2277-.1824 3.2539-.943 1.0262-2.0182.9198-3.2253.5006-5.495-1.9273-11.009-3.8045-16.5166-5.6943-3.1436-1.0763-2.5589-.926-3.7346 1.4955-2.515 5.1812-4.9544 10.3999-7.4127 15.606-.547 1.164-1.2574 2.1964-2.6783 2.1589-1.421-.0376-2.0308-1.1076-2.515-2.309a27913.8204 27913.8204 0 00-15.9821-38.014 8.4393 8.4393 0 012.3829.0501c.0788.393.186.78.3206 1.1577a38947.5139 38947.5139 0 0014.2783 33.9153c.2452.5694.3584 1.3203 1.2575 1.3265.899.0063 1.0625-.6758 1.358-1.2514 2.7538-5.469 5.5328-10.9193 8.2237-16.4133.5345-1.0888 1.0123-1.339 2.1943-.9511 5.91 1.9648 11.8514 3.8295 17.7866 5.7318.5721.1814 1.1757.5444 1.7038-.0376.5282-.5819.1384-1.1764-.0817-1.7208-.6287-1.558-1.2952-3.0974-1.9428-4.6492l-11.3547-27.0321a6.3146 6.3146 0 011.6221-1.458c.2578-.3567.4967-.7321.767-1.0888-.2703.3567-.503.7321-.767 1.0888a49544.0357 49544.0357 0 0114.4984 34.3345z" opacity=".68"/><path fill="#FFF" d="M171.479 129.669a3.728 3.728 0 00-1.7603-1.256c-2.9359-3.4536-4.7276-7.623-7.0977-11.4346-1.4837-2.3861-3.772-3.8429-6.1736-5.149-2.4015-1.3061-4.7402-2.4301-6.8714-4.0439-3.0041-2.1652-4.7951-5.631-4.822-9.331a43.7777 43.7777 0 010-5.5258 19.0601 19.0601 0 00-3.6588-13.149 35.9761 35.9761 0 01-2.7536-4.7785 12.2632 12.2632 0 01.0377-11.2274 60.0264 60.0264 0 013.5771-6.0847 16.1929 16.1929 0 002.804-9.8522c-.1258-2.1978 0-4.3955-.0566-6.6059-.0566-4.9543 2.15-8.6277 6.3496-11.1457 1.6282-.9733 3.269-1.9278 4.9665-2.7567a17.6428 17.6428 0 008.3111-8.2887 33.4115 33.4115 0 014.4762-7.3028c2.1985-2.5683 5.4184-4.0384 8.8014-4.0188a40.3898 40.3898 0 015.3752 0c5.0294.515 9.3735-.9733 13.4222-3.7676a37.4296 37.4296 0 014.2436-2.4552c3.9229-2.047 7.8458-1.9403 11.7813 0a60.6893 60.6893 0 015.8153 3.4411A16.6807 16.6807 0 00228.261 7.756c2.2003-.0942 4.4007 0 6.6074-.0502 4.9728-.044 8.6065 2.2291 11.0898 6.4426 1.0122 1.7142 2.0243 3.441 2.9108 5.2243a16.826 16.826 0 007.783 7.7613 52.2274 52.2274 0 016.2553 3.5792c3.4295 2.2206 5.467 6.0533 5.3877 10.1348a46.8388 46.8388 0 01-.0314 5.0611 19.0727 19.0727 0 003.6966 13.287 38.507 38.507 0 012.345 3.956c2.433 4.4897 2.1877 8.923-.3584 13.2808-1.2573 2.1664-2.5524 4.3139-3.8349 6.4677a13.1368 13.1368 0 00-1.8169 7.0265c.0315 2.5557 0 5.1177.044 7.6734.0818 4.967-2.1186 8.6466-6.2867 11.1897-1.7917 1.0863-3.64 2.0973-5.501 3.0643a15.8724 15.8724 0 00-7.1165 6.7503c-1.226 2.3547-2.5147 4.6844-3.772 7.0203a7.2483 7.2483 0 00-1.6095 1.9403 6.1082 6.1082 0 00-1.622 1.463c-2.741 1.8399-5.8026 2.3171-9.034 2.204-2.301-.0753-4.602 0-6.9155 0a11.2648 11.2648 0 00-4.6082.9294c-4.5516 1.9968-8.3676 5.4065-13.2021 6.8382a8.1823 8.1823 0 00-2.3827-.044c-3.8664-.0816-7.0035-2.047-10.0588-4.0815-3.772-2.5117-7.695-3.9748-12.3158-3.6922-3.4891.2197-7.0286.3076-10.4863-.5966a4.2836 4.2836 0 00-1.9426-.898"/><path fill="#FCCDD3" d="M244.5326 126c2.3059 5.4985 4.6139 10.997 6.924 16.4956 2.619 6.2768 5.2007 12.5537 7.857 18.7615.9145 2.1467 1.0825 4.2118-.5412 6.007-1.6237 1.7951-3.5957 1.8202-5.7357 1.0545-5.1012-1.814-10.2335-3.5527-15.3223-5.4044-1.2442-.4582-1.7605-.1256-2.283 1.0294-2.3454 5.1533-4.7591 10.2752-7.179 15.3908-.9705 2.0463-2.6689 2.8058-4.8649 2.6426-1.9471-.1444-3.154-1.2554-3.8694-2.9752a19752.1048 19752.1048 0 01-11.3284-27.2541c-.1742-.4206-.3919-.8223-.703-1.4626-1.3001 3.0945-2.5257 5.9756-3.7325 8.8692-2.731 6.597-5.4434 13.1814-8.1868 19.7847-.6524 1.9-2.4632 3.1427-4.4542 3.0568-2.221 0-3.5709-1.067-4.4729-3.0066-2.395-5.1345-4.8461-10.2375-7.2225-15.372-.4417-.954-.8896-1.0985-1.8663-.747-5.3812 1.9333-10.7934 3.7662-16.2056 5.6492-1.7529.7214-3.766.2513-5.0266-1.1738-1.3524-1.4015-1.7019-3.5022-.8771-5.2725a9651.3003 9651.3003 0 0013.207-31.7735c.2178-.5147.5102-.998.7653-1.4938a3.6901 3.6901 0 011.7418 1.2553c-2.1773 5.329-4.3546 10.6707-6.5382 15.9872-2.2582 5.4671-4.5538 10.9154-6.843 16.3763-.4977 1.1926-.6657 2.4103.342 3.4334 1.0079 1.0232 1.9908.6277 3.1106.27 5.5988-1.9961 11.291-3.9105 16.9085-5.9443 1.4309-.521 2.1338-.2447 2.7808 1.1864 2.4884 5.5299 5.126 11.0033 7.6953 16.5018.5102 1.086 1.2442 1.9333 2.4884 1.9145 1.1101-.0494 2.0658-.8067 2.3764-1.883 4.025-9.6978 8.0064-19.4144 12.0998-29.087.6574-1.2629.516-2.7979-.3608-3.9168a1.551 1.551 0 00-.622.929 59067.3715 59067.3715 0 01-11.9506 28.6538c-.2675.6277-.3483 1.5379-1.2442 1.5567-.8958.0188-1.1197-.9164-1.4494-1.5755-2.731-5.4797-5.4807-10.9531-8.1495-16.4705-.479-.9854-.9331-1.2177-1.9658-.8536-2.9612 1.0482-5.9535 1.9897-8.9333 2.9626-2.9799.973-6.0717 1.9459-9.1013 2.9376-.5101.1632-.9954.3076-1.406-.1506a1.1508 1.1508 0 01-.0622-1.293c.1556-.383.2862-.7658.4417-1.1424a24158.4841 24158.4841 0 0112.2678-29.5013c3.4215.9039 6.924.816 10.3765.5963 4.5725-.2824 8.473 1.1864 12.187 3.6908 3.0109 2.0337 6.1151 3.9984 9.9535 4.08a43382.4984 43382.4984 0 0115.795 38.1444c.4977 1.2052 1.0762 2.2723 2.4884 2.31 1.4121.0376 2.1089-.9918 2.6563-2.1593 2.4324-5.2286 4.8462-10.4573 7.3345-15.6545 1.1571-2.4291.5848-2.586 3.6953-1.5064 5.4496 1.883 10.8991 3.766 16.3425 5.7119 1.1944.4268 2.2644.5147 3.185-.5022.9208-1.0168.672-2.1027.1867-3.264a10370.5813 10370.5813 0 01-14.3082-34.4473 7.3237 7.3237 0 011.5864-1.9395"/><path fill="#FCCDD3" d="M241.4707 129.019l11.2504 27.4194c.6233 1.5677 1.309 3.129 1.926 4.7158.2181.5522.6233 1.1615.0872 1.7391-.536.5776-1.1281.2285-1.6953.0381-5.8776-1.9041-11.774-3.8082-17.6329-5.8076-1.1656-.3998-1.6455-.1396-2.169.9584-2.6677 5.5791-5.4227 11.1074-8.159 16.6484-.2866.5903-.4736 1.2694-1.34 1.2694-.8664 0-1.0222-.7616-1.2466-1.3392a9799.0463 9799.0463 0 01-14.1674-34.4075 9.013 9.013 0 01-.3241-1.1742c4.8056-1.4471 8.589-4.8936 13.0891-6.912a10.9841 10.9841 0 014.5687-.9393c2.2813 0 4.5625-.0571 6.8562 0 3.2037.1143 6.233-.3745 8.9567-2.2278"/><path fill="#6534FF" d="M161 70.1028c0-3.8667.0434-7.7397 0-11.6064 0-1.1202.2292-1.5188 1.4065-1.4935 3.4263.0822 6.8588 0 10.2914 0 1.3543-.046 2.6705.4632 3.655 1.4142.9847.951 1.556 2.2648 1.5867 3.6485.0805 2.215.0805 4.43 0 6.6513-.0798 2.7695-2.2876 4.9798-5.0001 5.0058-2.3173.057-4.6407.0823-6.9642 0-1.171-.0443-1.4498.3797-1.4127 1.5062.0744 2.2656.0558 4.5375 0 6.8031-.031.962-.3903 1.8416-1.5613 1.9492-.8298.126-1.6234-.3927-1.8588-1.2151a3.6176 3.6176 0 01-.0805-1.2214V70.0965m3.4201-4.759v3.8603c0 .7405.1549 1.1392 1.0037 1.1202 2.3607-.038 4.7337 0 7.1005 0 .5391.049 1.0723-.1446 1.4604-.53.388-.3854.5923-.9244.5595-1.4761.062-1.8986.0743-3.7971 0-5.6957.0593-.5819-.1474-1.1592-.5602-1.5647-.4128-.4056-.9856-.5941-1.5526-.511-2.2677 0-4.5354.038-6.8155 0-.9356 0-1.2392.367-1.2392 1.2657.0496 1.177 0 2.3668 0 3.5503m37.741 1.9108c-1.3027-2.6396-2.6055-5.292-4.0125-7.8999-.5876-1.1153-1.6258-1.943-2.8662-2.2851l-.1498-.038h-.1172L194.819 57H193.1514l-.215.0443h-.1172l-.1498.038c-1.2403.342-2.2786 1.1698-2.8661 2.2851-1.3875 2.608-2.6903 5.2603-3.993 7.8999-1.0617 2.0087-1.081 4.3875-.0522 6.4123 1.192 2.475 2.4623 4.9058 3.687 7.3681.9249 1.861 2.3059 3.0131 4.5597 2.9498 2.2538.0633 3.6347-1.0887 4.5597-2.9498 1.2246-2.4623 2.4948-4.893 3.6869-7.3681 1.0228-2.0278.9962-4.4066-.0717-6.4123zm-8.1945 13.2297c-.5993 0-.8663-.5064-1.1139-.9811-1.205-2.3485-2.4296-4.6906-3.6412-7.039a7.3545 7.3545 0 01-.1499-.3292 4.3196 4.3196 0 01-.3256-1.8357c.039-.2722.0716-.5507.1302-.8165a3.8712 3.8712 0 01.1824-.4938c1.3028-2.5826 2.56-5.159 3.9084-7.6973.2866-.5317.6514-.8102 1.0227-.8229.3713-.0127.736.2912 1.0226.823 1.3615 2.532 2.6447 5.1146 3.9084 7.6972.0734.1708.1344.3463.1824.5254.0586.2659.0912.5444.1303.8166a4.3196 4.3196 0 01-.3257 1.8357 7.3544 7.3544 0 01-.1499.3291c-1.2115 2.3485-2.4362 4.6906-3.6412 7.039-.2476.4748-.5146.9558-1.114.9812l-.026-.0317z"/><path fill="#6534FF" d="M171.479 129.669a3.728 3.728 0 00-1.7603-1.256c-2.9359-3.4536-4.7276-7.623-7.0977-11.4346-1.4837-2.3861-3.772-3.8429-6.1736-5.149-2.4015-1.3061-4.7402-2.4301-6.8714-4.0439-3.0041-2.1652-4.7951-5.631-4.822-9.331a43.7777 43.7777 0 010-5.5258 19.0601 19.0601 0 00-3.6588-13.149 35.9761 35.9761 0 01-2.7536-4.7785 12.2632 12.2632 0 01.0377-11.2274 60.0264 60.0264 0 013.5771-6.0847 16.1929 16.1929 0 002.804-9.8522c-.1258-2.1978 0-4.3955-.0566-6.6059-.0566-4.9543 2.15-8.6277 6.3496-11.1457 1.6282-.9733 3.269-1.9278 4.9665-2.7567a17.6428 17.6428 0 008.3111-8.2887 33.4115 33.4115 0 014.4762-7.3028c2.1985-2.5683 5.4184-4.0384 8.8014-4.0188a40.3898 40.3898 0 015.3752 0c5.0294.515 9.3735-.9733 13.4222-3.7676a37.4296 37.4296 0 014.2436-2.4552c3.9229-2.047 7.8458-1.9403 11.7813 0a60.6893 60.6893 0 015.8153 3.4411A16.6807 16.6807 0 00228.261 7.756c2.2003-.0942 4.4007 0 6.6074-.0502 4.9728-.044 8.6065 2.2291 11.0898 6.4426 1.0122 1.7142 2.0243 3.441 2.9108 5.2243a16.826 16.826 0 007.783 7.7613 52.2274 52.2274 0 016.2553 3.5792c3.4295 2.2206 5.467 6.0533 5.3877 10.1348a46.8388 46.8388 0 01-.0314 5.0611 19.0727 19.0727 0 003.6966 13.287 38.507 38.507 0 012.345 3.956c2.433 4.4897 2.1877 8.923-.3584 13.2808-1.2573 2.1664-2.5524 4.3139-3.8349 6.4677a13.1368 13.1368 0 00-1.8169 7.0265c.0315 2.5557 0 5.1177.044 7.6734.0818 4.967-2.1186 8.6466-6.2867 11.1897-1.7917 1.0863-3.64 2.0973-5.501 3.0643a15.8724 15.8724 0 00-7.1165 6.7503c-1.226 2.3547-2.5147 4.6844-3.772 7.0203a7.2483 7.2483 0 00-1.6095 1.9403 6.1082 6.1082 0 00-1.622 1.463c-2.741 1.8399-5.8026 2.3171-9.034 2.204-2.301-.0753-4.602 0-6.9155 0a11.2648 11.2648 0 00-4.6082.9294c-4.5516 1.9968-8.3676 5.4065-13.2021 6.8382a8.1823 8.1823 0 00-2.3827-.044c-3.8664-.0816-7.0035-2.047-10.0588-4.0815-3.772-2.5117-7.695-3.9748-12.3158-3.6922-3.4891.2197-7.0286.3076-10.4863-.5966a4.2836 4.2836 0 00-1.9426-.898m12.1775-119.2065c-2.4833 0-4.1807-.069-5.8656 0-3.068.157-5.6266 1.2999-7.4498 3.912a51.0613 51.0613 0 00-3.6966 6.361 19.4775 19.4775 0 01-8.8643 8.835c-1.7352.8728-3.4011 1.8838-5.0923 2.832-3.5394 2.003-5.1991 5.0737-5.1677 9.105 0 2.6122 0 5.2244.044 7.8303a15.0567 15.0567 0 01-2.1626 8.0438c-1.1694 1.978-2.3387 3.9622-3.5583 5.9151-2.5147 4.0376-2.6342 8.0626-.0377 12.1128.6286.9482 1.1001 1.9717 1.7602 2.8822a20.704 20.704 0 014.0173 14.3106c-.1383 1.6263-.0629 3.2778-.0503 4.9167.0314 3.4913 1.2573 6.3986 4.2813 8.3452a28.2979 28.2979 0 003.5645 2.0973c5.6141 2.5117 9.82 6.3798 12.322 12.05a35.0898 35.0898 0 001.8861 3.3531c1.9992 3.4662 5.0671 5.0674 9.0215 5.0674 2.7096 0 5.4255 0 8.1413-.0376a15.3532 15.3532 0 017.9842 2.2542c1.9866 1.168 3.967 2.3422 5.9221 3.5541 3.9041 2.4301 7.7956 2.4615 11.706.0314 1.4774-.9167 3.005-1.7582 4.4573-2.7063a17.9013 17.9013 0 0111.0144-3.1397c2.194.1256 4.4007.0502 6.6073.0565 4.0173 0 7.123-1.6012 9.1284-5.1428.9619-1.6954 1.9678-3.3594 2.8353-5.0925a19.2258 19.2258 0 018.8015-8.8664c1.7854-.8854 3.5143-1.8838 5.2306-2.9136 2.7787-1.6577 4.6459-3.9434 4.9602-7.3091.2955-3.1397.0943-6.2354.0817-9.3562a16.387 16.387 0 012.4519-8.7847c1.1945-1.9655 2.3638-3.9497 3.552-5.9214 2.2004-3.6483 2.3135-7.3343.1509-11.039-.9493-1.6327-1.886-3.2653-2.936-4.854a18.1316 18.1316 0 01-3.1873-11.152c.132-2.248.0817-4.5023.0503-6.7566-.0503-3.4222-1.2574-6.2793-4.2059-8.2385a63.5171 63.5171 0 00-6.2679-3.529 19.1885 19.1885 0 01-8.55-8.5273c-.9618-1.8837-2.0054-3.6796-3.0679-5.488-1.6471-2.8132-4.0298-4.6028-7.3492-4.9105-1.2573-.113-2.5587-.069-3.8412-.0942-2.7599-.0502-5.5386.226-8.286-.1444-3.3948-.4647-6.2867-2.179-8.9711-4.1444-5.7021-4.2071-11.2093-4.2636-16.9114 0-4.495 3.347-9.5244 5.168-14.4595 4.3202"/><path fill="#6534FF" d="M235.046 70.0511c0-3.8686.0458-7.7373-.0328-11.606 0-1.1966.3736-1.4689 1.5403-1.4435 3.631.0696 7.2622 0 10.8933 0 1.4316-.034 2.818.486 3.8506 1.4444 1.0327.9584 1.6262 2.2757 1.6485 3.6589a97.7723 97.7723 0 010 6.5026c-.0357 2.8283-2.4138 5.1058-5.3418 5.116-2.5103.0506-5.0206.0443-7.5244 0-.9766 0-1.3109.285-1.3109 1.2663.059 2.2161.0525 4.4322 0 6.6546-.0327 1.184-.2753 2.3744-1.8876 2.3554-1.4158 0-1.8877-.8928-1.8811-2.1718V70.0638m3.6114-4.6475c0 1.2664.0328 2.5707 0 3.856 0 .8168.308 1.0764 1.1274 1.0638h7.3474c.6008.0853 1.2087-.1024 1.647-.5084.4383-.406.6577-.985.5946-1.5684.059-1.8995.0787-3.799 0-5.6985-.059-1.317-.8258-2.0388-2.294-2.0135-2.34.038-4.6864.0443-7.0263 0-1.0487 0-1.4354.342-1.383 1.3486.059 1.1777 0 2.368 0 3.5521m-10.7272 16.2504c-2.1885-7.8093-4.4143-15.6122-6.6276-23.4151-.342-1.2024-1.2434-1.443-2.2755-1.1961-.8456.2088-1.0694 1.0189-1.287 1.772a8478.1174 8478.1174 0 01-4.265 14.6376c-.7771 2.6579-1.5916 5.3095-2.3252 7.9801-.2985 1.1011-.0684 2.1263 1.1812 2.4428 1.0943.2784 1.8652-.1646 2.1388-1.367.2735-1.2024.7025-2.2529.9885-3.3983.036-.3316.2058-.633.4687-.8322a1.1653 1.1653 0 01.9177-.2183c1.774.0421 3.546.0421 5.3158 0 .833 0 1.2932.2025 1.4672 1.12a29.8574 29.8574 0 00.9264 3.2592c.255.829.6715 1.5188 1.6787 1.4999.5675.0441 1.118-.2085 1.4614-.6706.3433-.4621.4322-1.0702.2359-1.614zm-5.6888-6.6132h-5.4339a.4206.4206 0 01-.339-.179.4367.4367 0 01-.0589-.3842l2.7605-8.4738a.4406.4406 0 01.2176-.2531.4463.4463 0 01.2735 0h.087v.0443a.4549.4549 0 01.1742.2341l2.6672 8.4675a.4305.4305 0 01-.0495.3547.4157.4157 0 01-.2987.1895z"/><path fill="#62BCF9" fill-rule="nonzero" d="M273.4034 314.564c12.834 9.578 44.7994-1.8732 53.6196-21.9096 7.0084-15.928-6.7693-23.2831-2.8562-44.793 4.819-26.4364 28.3103-30.014 34.7839-55.1142 6.0395-23.433-2.3089-50.219-11.5506-51.6862-9.6444-1.5235-12.8466 25.7432-42.9057 55.3826-21.0755 20.7856-28.8199 16.571-37.118 32.4178-10.242 19.5806-6.2533 40.972-1.1386 68.3635 2.0823 11.1327 3.8124 14.8353 7.1656 17.339z"/><path fill="#52D2BC" fill-rule="nonzero" d="M143.644 197.0214c2.4626 2.6261 3.7502 5.9864 4.8752 9.3846 1.55 4.5942 2.0814 9.6187.625 14.3079-4.7064 15.1875-28.0262 21.813-44.9394 18.4148-17.2633-3.4678-18.6946-15.5419-34.2452-16.2506-14.9132-.6835-17.7633 10.2262-33.1765 9.7516-11.713-.3797-26.7886-7.1824-33.1702-21.6675-6.3815-14.485-3.6814-33.501 3.2064-35.7539 7.0378-2.3034 11.5568 15.1875 27.8262 18.4149 15.0007 2.9932 19.2884-10.3022 36.3829-8.6633 17.5632 1.677 23.4447 16.7 36.3828 12.998 4.2627-1.2213 6.9315-4.474 10.588-6.7141 4.5064-2.759 10.1191-2.3984 15.0006-.8606a21.9518 21.9518 0 011.7626.6328c3.2608 1.311 6.2172 3.2935 8.6816 5.8218l.2.1836z"/><path fill="#3E1EC4" fill-rule="nonzero" d="M162 225.5436v-27.0872c.004-2.4823-1.3038-4.777-3.4284-6.016l-23.1463-13.512a6.7717 6.7717 0 00-6.8444 0l-23.1463 13.531c-2.127 1.2372-3.4373 3.5323-3.4346 6.0159v27.0872c-.0027 2.4836 1.3076 4.7787 3.4346 6.016l23.1277 13.4932a6.7717 6.7717 0 006.8443 0l23.1463-13.5248c2.128-1.2318 3.4428-3.5216 3.447-6.0033z" opacity=".32"/><path fill="#F9879A" fill-rule="nonzero" d="M163 223.5266v-27.0532c.0027-2.4833-1.3083-4.7782-3.4364-6.0154l-23.1272-13.5297a6.7788 6.7788 0 00-6.848 0l-23.1582 13.5297c-2.1257 1.2388-3.4342 3.5334-3.4302 6.0154v27.0532c-.004 2.482 1.3045 4.7766 3.4302 6.0154l23.1583 13.5297a6.7788 6.7788 0 006.8479 0l23.1583-13.5297c2.1161-1.2452 3.4144-3.5386 3.4053-6.0154z"/><path stroke="#FFF" stroke-linecap="round" stroke-linejoin="round" stroke-width="1.51" d="M162 195.2504c.0027-2.457-1.3076-4.7276-3.4346-5.9517l-23.1463-13.3803a6.8349 6.8349 0 00-6.8444 0l-23.1463 13.3803c-2.1246 1.2257-3.4324 3.496-3.4284 5.9517v26.798c-.004 2.4557 1.3038 4.726 3.4284 5.9516"/><path fill="#FFF" fill-rule="nonzero" d="M152.186 214.87l2.814-4.873-2.814-4.873v-5.629l-4.873-2.808-2.815-4.879h-5.628L133.997 189l-4.873 2.808h-5.629l-2.808 4.879-4.873 2.808v5.629L113 209.997l2.814 4.873v5.628l4.873 2.815 2.808 4.873h5.629l4.873 2.814 4.873-2.814h5.628l2.815-4.873 4.873-2.815z"/><path stroke="#6535FF" stroke-linecap="round" stroke-linejoin="round" stroke-width="1.51" d="M151 198.452l-4.85-2.801-2.801-4.85h-5.595l-4.85-2.801-4.85 2.801h-5.602l-2.801 4.85-4.85 2.801v5.595l-2.801 4.85 2.801 4.85v5.602l4.85 2.801 2.801 4.85h5.602"/><circle cx="134" cy="209" r="8" fill="#62BCF9" fill-rule="nonzero"/><path stroke="#6535FF" stroke-linecap="round" stroke-linejoin="round" stroke-width="1.51" d="M129.9537 216c-2.2173-1.7738-3.306-4.5924-2.8522-7.3837.4538-2.7913 2.3805-5.1264 5.0473-6.1171 2.6667-.9908 5.6638-.485 7.8512 1.325"/><path fill="#6534FF" fill-rule="nonzero" d="M161.4802 190.4232l-23.8611-13.5466a7.1544 7.1544 0 00-2.6656-.8766 13.535 13.535 0 00-1.0854 3.2983c-.7322 3.866.0514 7.8518 1.1625 11.6294 1.1112 3.7776 2.5692 7.4733 3.2115 11.3519.8953 5.3193.266 10.7783-1.8177 15.7664-2.7426 6.4706-7.7974 11.9195-9.7243 18.6802a20.8946 20.8946 0 00-.7001 3.784l4.496 2.5604c2.186 1.2392 4.8793 1.2392 7.0653 0l23.8932-13.5466c2.1957-1.2386 3.5483-3.5364 3.5455-6.0228V196.446c.008-2.4812-1.334-4.7777-3.5198-6.0228z" opacity=".32"/><path stroke="#FFF" stroke-linecap="round" stroke-linejoin="round" stroke-width="1.51" d="M137 240l22-13"/><path stroke="#6534FF" stroke-linecap="round" stroke-linejoin="round" stroke-width="2.29" d="M116 307c-40.8622-4.6244-83.0525-56.3431-76.2798-103.8722C43.21 178.6198 59.5686 156.317 78.3895 144M306 37c32.6645 27.6906 6.4156 75.5917 48 116"/><path fill="#62BCF9" fill-rule="nonzero" d="M100 303h50v7h-50zM100 317h33v7h-33zM60 141h33v7H60zM60 129h33v7H60z"/><path fill="#6534FF" fill-rule="nonzero" d="M361 267h33v7h-33z"/><path fill="#62BCF9" fill-rule="nonzero" d="M60 116h33v7H60z"/><path fill="#3E1EC4" fill-rule="nonzero" d="M383 154.92c.007-3.3802-2.722-6.1288-6.1018-6.146h-.3188a2.8693 2.8693 0 00.3-.1063c3.0215-1.3246 4.4496-4.8056 3.229-7.8707-1.2205-3.0651-4.6505-4.6113-7.7553-3.496a6.14 6.14 0 00-1.713-9.6973 4.6073 4.6073 0 00-.794-.325 6.1515 6.1515 0 00-6.2518 1.488c-.075.075-.1375.15-.2125.2313a2.8385 2.8385 0 00.1313-.2814c1.3362-3.1077-.0997-6.7103-3.2072-8.0466-3.1075-1.3364-6.7099.0997-8.0461 3.2074-.1316-3.305-2.8648-5.9076-6.172-5.8771-3.3072.0304-5.992 2.6828-6.0628 5.9896v.3251c-.0375-.1-.0688-.2063-.1126-.3063a6.1452 6.1452 0 00-9.684-2.2883 4.539 4.539 0 00-.6252.6252 6.1463 6.1463 0 00-1.0816 6.2523 6.1452 6.1452 0 00-6.1518-1.4068 4.326 4.326 0 00-.7877.3189 6.146 6.146 0 00-1.6317 9.8223l.2375.2188c-.0937-.05-.1875-.1-.2876-.1438-3.1075-1.3363-6.7098.0997-8.046 3.2074-1.3363 3.1078.0996 6.7104 3.2071 8.0467-3.3802.0328-6.094 2.7999-6.0611 6.1804.0328 3.3805 2.7996 6.0944 6.18 6.0616h.3188l-.3064.1062c-2.5716 1.2056-3.9776 4.0205-3.3968 6.8008.5807 2.7803 2.996 4.797 5.835 4.8722a6.214 6.214 0 002.207-.4126 6.14 6.14 0 001.6817 9.7285 4.92 4.92 0 00.794.3251 6.164 6.164 0 006.2518-1.488l.2188-.2438c-.05.1-.1.1938-.1438.2938a6.1526 6.1526 0 00.744 6.0147c.256.3537.554.675.8877.9566l-7.5022 15.7057a1.0755 1.0755 0 001.2504 1.5006l8.046-2.2133a1.069 1.069 0 011.2505.5877l3.6135 7.884a1.0753 1.0753 0 001.9443 0l7.0708-14.7928 6.9583 14.8554a1.0753 1.0753 0 001.9443 0l3.6699-7.8653a1.0815 1.0815 0 011.2503-.5753l8.0336 2.2696a1.0753 1.0753 0 001.2504-1.4943l-7.3772-15.712.175-.1375a4.539 4.539 0 00.6253-.6252 6.14 6.14 0 001.0753-6.2085 6.139 6.139 0 006.1518 1.4067 5.0013 5.0013 0 00.7814-.325 6.1397 6.1397 0 001.638-9.8162c-.0813-.0812-.1625-.1438-.2376-.2188.0938.0438.1876.1.2876.1376a6.0576 6.0576 0 004.6889 0 6.0832 6.0832 0 003.3135-3.3137c1.2437-3.0513-.1484-6.54-3.151-7.8967 3.312-.0778 5.9608-2.7767 5.9768-6.0897z" opacity=".32"/><path fill="#FCCDD3" fill-rule="nonzero" d="M370.6586 204.2302l-7.9215-2.2555c-.4942-.1373-1.0145.1046-1.233.5732l-3.6247 7.8384c-.1753.3747-.5486.6137-.9586.6137-.41 0-.7834-.239-.9586-.6137l-9.8634-21.1849c-.2458-.537-.0174-1.1737.5117-1.4268l14.0615-6.6733a1.0439 1.0439 0 01.8092-.037c.2639.097.4785.2965.5963.5542l9.8202 21.1288a1.0746 1.0746 0 01-.1465 1.1452 1.0473 1.0473 0 01-1.0926.3377z"/><path fill="#FCCDD3" fill-rule="nonzero" d="M327.3353 204.148l7.9087-2.2042c.4953-.13 1.0118.116 1.229.5853l3.552 7.8577c.1746.3744.5467.6132.9555.6132.4087 0 .7809-.2388.9556-.6132l9.9612-21.1012c.2502-.533.0276-1.1708-.4978-1.4259l-13.931-6.7556c-.526-.2536-1.1554-.028-1.4072.5043l-9.9612 21.0514c-.175.378-.1173.8247.148 1.1443.2652.3196.6896.4538 1.0872.3438z"/><path fill="#6534FF" fill-rule="nonzero" d="M351.365 188.121L348.8631 187c.1551 2.3805-.8557 4.697-2.7442 6.2887-1.4736 1.232-3.3664 1.9094-4.912 3.0797-1.3323 1.076-2.5003 2.3196-3.4713 3.6957-.5835.6852-1.0619 1.444-1.4212 2.2543a5.34 5.34 0 00-.3144 1.4228l3.242 6.6522c.1862.3704.5828.6066 1.0184.6066.4357 0 .8323-.2362 1.0185-.6066l10.6166-20.8742c.258-.5241.022-1.146-.5305-1.3982zm11.3362-6.495c-.1775-.4278-.5972-.6789-1.0303-.6166-.049.708-.049 1.419 0 2.127a52.6443 52.6443 0 01-.426 8.5695c-.1784 1.3316-.4087 2.7126-.0748 4.0134.662 2.5894 3.212 3.9519 5.2209 5.5486a15.9866 15.9866 0 012.0607 2.0098l2.3025.6844c.371.1095.7675-.0226 1.015-.3381.2476-.3156.3008-.7567.1362-1.1292l-9.2042-20.8689z" opacity=".32"/><path fill="#6534FF" fill-rule="nonzero" d="M358.975 172.063c-2.2412.0055-4.3728.9791-5.8562 2.6748a7.4874 7.4874 0 00-6.4688-.3154c-1.4582-1.5301-3.4653-2.4032-5.5687-2.4224-4.4437 0-8.0625 3.8165-8.0812 8.554-.0188 4.7376 3.575 8.592 8.025 8.6109a7.57 7.57 0 002.925-.5867c1.4997 1.5895 3.5934 2.468 5.7676 2.42 2.1742-.048 4.2278-1.0181 5.6573-2.6723a7.5192 7.5192 0 003.5437.8957c4.45 0 8.0688-3.785 8.0813-8.5477.0125-4.7628-3.575-8.5919-8.025-8.6108z" opacity=".32"/><path fill="#F9879A" fill-rule="nonzero" d="M387 153.111c.007-3.3938-2.7298-6.1525-6.1172-6.1663h-.3197l.3009-.1068c3.029-1.3302 4.4608-4.8263 3.2372-7.9047-1.2237-3.0783-4.6624-4.6312-7.775-3.511a6.1802 6.1802 0 001.6063-5.326c-.3388-1.93-1.5723-3.5843-3.3236-4.4572a4.5891 4.5891 0 00-.796-.3203c-2.2034-.7246-4.6263-.1468-6.2676 1.4945-.0752.069-.138.1507-.2069.226.044-.0941.0878-.182.1254-.2825 1.3379-3.1212-.103-6.738-3.2184-8.0783-3.1154-1.3404-6.7255.1032-8.0633 3.2244-.132-3.3193-2.872-5.933-6.1876-5.9025-3.3156.0305-6.0072 2.6944-6.0782 6.0155v.3266c-.0376-.1005-.069-.2073-.1128-.3077-.7582-1.8275-2.3457-3.1794-4.2682-3.6344a6.1464 6.1464 0 00-5.4404 1.3361 4.5546 4.5546 0 00-.6267.628c-1.4822 1.7212-1.899 4.1199-1.0843 6.2416-1.6404-1.5707-4.0087-2.1132-6.1674-1.4128a5.3719 5.3719 0 00-.7897.3265c-1.7687.8808-3.008 2.5585-3.332 4.5105a6.1736 6.1736 0 001.6961 5.348c.0753.0816.163.1507.2382.2198l-.2883-.1382c-3.1154-1.342-6.7268.1001-8.0664 3.2213s.0999 6.7394 3.2153 8.0815c-3.3135.1334-5.9216 2.88-5.8894 6.2022.0322 3.322 2.693 6.0175 6.0084 6.0864h.3197l-.3009.1067c-3.1306 1.2991-4.6198 4.8928-3.328 8.0313.9445 2.2893 3.1683 3.787 5.6408 3.799a5.9445 5.9445 0 002.2062-.4145 6.1802 6.1802 0 00-1.6063 5.326c.3388 1.93 1.5723 3.5843 3.3236 4.4572.2548.1314.5213.2386.796.3202 2.2035.7216 4.6248.1443 6.2677-1.4944.0752-.0754.1441-.157.2193-.2386-.051.0959-.097.1944-.1379.295a6.1695 6.1695 0 00.7396 6.0408 5.6462 5.6462 0 001.2034 1.2119 6.1395 6.1395 0 005.2393 1.0584 6.1516 6.1516 0 004.087-3.4508c.133 3.3195 2.8746 5.9326 6.1906 5.9003 3.3159-.0322 6.0063-2.698 6.075-6.0196v-.3266c.0377.1005.069.2073.1129.3077.9446 2.2893 3.1683 3.787 5.6409 3.799a6.2607 6.2607 0 004.0677-1.507c.2273-.19.4371-.4002.6267-.628 1.4788-1.723 1.8929-4.1209 1.078-6.2416 1.6391 1.5732 4.0088 2.116 6.1674 1.4128.2707-.0816.533-.1889.7835-.3202 1.7698-.8811 3.0103-2.5593 3.3354-4.5123a6.1799 6.1799 0 00-1.6933-5.3525c-.0752-.0753-.163-.1444-.2382-.2135l.2883.1382c3.131 1.2997 6.721-.1868 8.0226-3.3218 1.2695-3.0783-.136-6.6099-3.1714-7.9684 3.3433-.0581 6.026-2.785 6.0357-6.135z"/><path stroke="#6535FF" stroke-linecap="round" stroke-linejoin="round" stroke-width="2.15" d="M385 153.3297c.007-3.4138-2.7425-6.1898-6.148-6.2072h-.3275c.107-.038.2079-.0695.3087-.1137 3.065-1.3264 4.5207-4.857 3.284-7.9656-1.2366-3.1086-4.7164-4.6663-7.851-3.5142 1.359-1.424 1.961-3.411 1.6215-5.352-.3395-1.941-1.58-3.6043-3.341-4.4798a5.1959 5.1959 0 00-.8-.3283c-2.2148-.7227-4.6466-.1425-6.2992 1.5028-.0756.0758-.1448.1579-.2141.2337.044-.0948.0944-.1895.1322-.2842 1.3464-3.1387-.1004-6.7772-3.2314-8.1268-3.131-1.3497-6.7606.1007-8.107 3.2393-.1338-3.3382-2.8891-5.9658-6.2217-5.9334-3.3326.0324-6.0365 2.7132-6.1056 6.0534v.322a2.9028 2.9028 0 00-.1071-.303c-.7614-1.84-2.3582-3.2013-4.2921-3.659a6.1747 6.1747 0 00-5.4715 1.3478 4.8878 4.8878 0 00-.63.6315c-1.4907 1.7329-1.9095 4.1474-1.0897 6.283-1.6493-1.5831-4.0332-2.129-6.2046-1.4208a5.0322 5.0322 0 00-.7874.322c-1.7778.8873-3.0231 2.5755-3.3486 4.5393-.3255 1.9639.3085 3.965 1.7045 5.3809l.2394.221a3.146 3.146 0 00-.296-.139 6.1574 6.1574 0 00-6.127.728c-1.766 1.3224-2.6941 3.4888-2.4347 5.6831.2595 2.1943 1.667 4.0832 3.6924 4.9552-3.1922.323-5.604 3.0458-5.5465 6.2615.0576 3.2158 2.5653 5.8501 5.767 6.0581h.3275c-.107.038-.2078.0695-.3086.1137-3.1464 1.3063-4.6431 4.9202-3.3449 8.0763h0c.9548 2.2977 3.1863 3.8015 5.6692 3.8203a6.2478 6.2478 0 002.2236-.4168c-1.35 1.4256-1.9451 3.409-1.6034 5.3445.3417 1.9357 1.5795 3.5938 3.3357 4.4683.2537.1342.5194.2441.7937.3284"/><circle cx="349.5" cy="154.5" r="28.5" fill="#BBC4EF" fill-rule="nonzero" opacity=".32"/><path stroke="#BBC4EF" stroke-linecap="round" stroke-linejoin="round" stroke-width="2.15" d="M323 144c2.7243-8.3835 9.2456-14.9462 17.549-17.6606 8.3033-2.7143 17.3894-1.2536 24.451 3.931"/><path fill="#6534FF" fill-rule="nonzero" d="M387 153.7732c.007-3.4193-2.7737-6.1988-6.2156-6.2128h-.3248l.3057-.1075c3.0778-1.3403 4.5326-4.8628 3.2892-7.9643-1.2433-3.1016-4.7373-4.6662-7.9-3.5376 1.3707-1.4298 1.9764-3.4214 1.6322-5.366-.3443-1.9447-1.5976-3.6114-3.3771-4.4909a4.686 4.686 0 00-.8088-.3226c-2.2388-.7301-4.7007-.148-6.3684 1.5057-.0765.0696-.1401.1518-.2102.2278.0446-.095.0892-.1835.1274-.2847a6.0873 6.0873 0 00.414-3.2203 12.8226 12.8226 0 00-2.6493 4.5868c-.5286 1.7272-.5923 3.5556-.8534 5.3397a24.4024 24.4024 0 01-4.0058 10.2492c-3.407 4.9854-8.6929 8.7624-10.8836 14.3867-1.815 4.6564-1.21 9.838-1.159 14.8297A64.6893 64.6893 0 01346 190.0754c1.9183 1.179 4.3287 1.2342 6.2997.1442 1.971-1.09 3.1936-3.1543 3.1956-5.3953v-.329c.0382.1013.07.2088.1147.31.9597 2.3066 3.2192 3.8156 5.7316 3.8277 1.5157-.0014 2.9811-.5398 4.133-1.5184a4.9767 4.9767 0 00.637-.6327c1.5024-1.7361 1.9232-4.152 1.0953-6.2887 1.6654 1.585 4.0732 2.132 6.2665 1.4235a4.5578 4.5578 0 00.796-.3226c1.7984-.8878 3.0588-2.5786 3.3891-4.5463.3304-1.9678-.3095-3.9734-1.7205-5.3929-.0764-.076-.1656-.1455-.242-.2151l.293.1392c3.1813 1.3096 6.8291-.1881 8.1516-3.3468 1.29-3.1015-.1382-6.6597-3.2225-8.0285 3.3575-.085 6.0453-2.7942 6.0819-6.1305z" opacity=".1"/><path fill="#6534FF" fill-rule="nonzero" d="M240.4937 301c-1.9812-.0035-3.8982-.6917-5.4165-1.9445l-27.0512-22.3737c-1.9147-1.5696-3.023-3.8946-3.026-6.3473v-47.6826c0-1.5302.9965-2.888 2.4724-3.3687 21.437-7.0443 44.6183-7.0443 66.0552 0 1.4759.4806 2.4724 1.8385 2.4724 3.3687v47.6826c.001 2.4513-1.1 4.7773-3.007 6.3535l-27.0513 22.3737c-1.5275 1.2574-3.4568 1.9438-5.448 1.9383z"/><path fill="#FCCDD3" fill-rule="nonzero" stroke="#6535FF" stroke-linecap="round" stroke-linejoin="round" stroke-width=".41" d="M245.362 266.995L234 260l11.2 16 11.8-15.576z"/><path fill="#FCCDD3" fill-rule="nonzero" stroke="#6535FF" stroke-linecap="round" stroke-linejoin="round" stroke-width=".41" d="M234.019 256.265h.063L245.487 263l11.437-6.316.063.007-.038-.019.051-.026L245.962 237 234 256.22l.057.032z"/><path fill="#FCCDD3" fill-rule="nonzero" d="M277.3782 221.354a103.6455 103.6455 0 00-65.7627 0c-2.7586.922-4.6182 3.5112-4.6155 6.4264v46.8214c.0001 3.3757 1.4892 6.5786 4.0677 8.7494l26.0998 21.9746c4.239 3.5656 10.4196 3.5656 14.6587 0l26.1061-21.9746c2.5764-2.1725 4.065-5.3743 4.0677-8.7494v-46.8403c-.0082-2.9093-1.8685-5.4883-4.6218-6.4074zm1.3475 53.2478c.002 2.4075-1.0612 4.6919-2.9028 6.237l-26.0998 21.9746c-3.0233 2.5407-7.4292 2.5407-10.4525 0l-26.0998-21.9746c-1.8402-1.5462-2.903-3.8299-2.9028-6.237v-46.8403c.0008-1.5027.959-2.8368 2.3801-3.3142a100.4105 100.4105 0 0163.6849 0c1.4249.4735 2.3867 1.8092 2.3864 3.3142l.0063 46.8403z"/><path fill="#BBC4EF" fill-rule="nonzero" d="M281 274.2126V227.562c-.0001-2.9043-1.8176-5.4827-4.5116-6.4003-8.5325-2.9124-17.4064-4.6482-26.3874-5.1617 2.8582 4.1796 4.84 8.9188 5.8209 13.9197 1.2969 6.0105 1.5366 12.197 1.7763 18.3459.1291 3.3133.252 6.6643-.3995 9.9085-1.5797 7.8778-7.462 14.102-10.2771 21.6089-2.2989 6.1237-2.4587 12.9263-1.3707 19.3895A63.053 63.053 0 00247.5502 307c1.465-.4395 2.8254-1.1845 3.9953-2.188l25.4838-21.8854c2.515-2.1637 3.968-5.3526 3.9707-8.714z" opacity=".44"/><path fill="#070707" fill-rule="nonzero" d="M219.8796 269l-17.4409-4.6594c-.6502-.0033-1.2724-.2567-1.7297-.7047-.4573-.4479-.7124-1.0536-.709-1.6837l.0511-8.5823c.0105-1.3119 1.1107-2.37 2.4642-2.3699l17.441 4.6655c.417.0061.7916.2488.9569.62s.0906.8018-.1909 1.1002l-6.2754 1.9367a.998.998 0 000 1.386l6.2243 6.5837c.282.3006.3534.7347.1816 1.1053-.1718.3707-.554.6073-.9732.6025zm49.2425-13.436L286.5559 251c1.353.0103 2.4441 1.0848 2.4441 2.4067l-.0574 8.6414c-.0017.6361-.2624 1.2454-.7245 1.6934-.4621.448-1.0877.698-1.7387.6946L269.0519 269c-.4182-.0004-.7964-.2425-.9638-.617-.1674-.3743-.0922-.81.1916-1.11l6.2793-6.584c.37-.3954.37-1.0013 0-1.3967l-6.2154-2.0013c-.2847-.3009-.3595-.738-.1905-1.113.169-.375.5497-.6162.969-.614z" opacity=".18"/><path fill="#52D2BC" fill-rule="nonzero" d="M219.8776 265l-17.4392-.0619c-.65-.0033-1.2722-.2567-1.7295-.7047-.4573-.4479-.7123-1.0535-.7089-1.6837l.0511-13.1798c.007-1.3133 1.1092-2.3733 2.464-2.3699l17.439.068c.4172.003.7933.2441.959.6152.166.371.0902.802-.193 1.0989l-6.2747 6.5404a.9981.9981 0 000 1.386l6.2237 6.6084c.2652.3018.3262.725.1566 1.0857-.1696.3607-.5393.5936-.9481.5974zm49.2445-18l17.4338.068c1.3544.0069 2.4476 1.0752 2.444 2.3885l-.0573 13.1736c-.0017.6312-.2624 1.2359-.7245 1.6805-.4621.4446-1.0877.6927-1.7387.6894l-17.4275-.0681c-.4182-.0004-.7964-.2407-.9638-.6123-.1674-.3715-.0922-.804.1916-1.1017l6.2793-6.5466a.9983.9983 0 000-1.3798l-6.2218-6.5899c-.2768-.3001-.346-.73-.1764-1.0975.1696-.3675.546-.6041.9613-.6041z"/><path stroke="#6535FF" stroke-linecap="round" stroke-linejoin="round" stroke-width="2.23" d="M213.4842 258.5093l6.2432 6.7368a1.042 1.042 0 01.1811 1.1294c-.1701.3788-.5495.6234-.9687.6245l-17.4937-.0696a2.4727 2.4727 0 01-1.735-.7211 2.4173 2.4173 0 01-.711-1.723L199.0512 251M285 267l-16.9761-.0646c-.4087-.0006-.778-.2535-.94-.6436-.1619-.3902-.0856-.843.1943-1.1527l6.0833-6.8168c.3602-.4097.3602-1.0376 0-1.4473L267.3031 250"/><path stroke="#BBC4EF" stroke-linecap="round" stroke-linejoin="round" stroke-width="2.23" d="M217 279l23 20"/><circle cx="140.5" cy="252.5" r="13.5" fill="#F9879A" fill-rule="nonzero"/><circle cx="76" cy="212" r="7" fill="#4020C6" fill-rule="nonzero" opacity=".54"/><circle cx="91" cy="264" r="20" fill="#62BCF9" fill-rule="nonzero"/><path fill="#F9879A" fill-rule="nonzero" d="M39.0002 180.8774l.1183-16.5647c.0102-1.2854 1.0177-2.3198 2.2525-2.3127l12.4075.0907c.5941.0052 1.162.2558 1.5785.6968.4166.441.6479 1.0363.643 1.6548l-.1183 16.5647c-.0018.3979-.2305.7566-.582.9129-.3515.1562-.7586.08-1.0358-.1939l-6.1354-5.9793c-.3671-.3531-.9333-.3531-1.3004 0l-6.2225 5.8886c-.283.27-.6935.3381-1.0431.173-.3496-.165-.5709-.5313-.5623-.931z"/><path fill="#6534FF" fill-rule="nonzero" d="M292.0002 79.8774l.1183-16.5647c.0102-1.2854 1.0177-2.3198 2.2525-2.3127l12.4075.0907c.5941.0052 1.162.2558 1.5785.6968.4166.441.6479 1.0363.643 1.6548l-.1183 16.5647c-.0018.3979-.2305.7566-.582.9129-.3515.1562-.7586.08-1.0358-.1939l-6.1354-5.9793c-.3671-.3531-.9333-.3531-1.3004 0l-6.2225 5.8886c-.283.27-.6935.3381-1.0431.173-.3496-.165-.5709-.5313-.5623-.931z"/><path fill="#F9879A" fill-rule="nonzero" d="M304.0007 94.4966l.0541-7.454a1.0463 1.0463 0 01.315-.7418c.1999-.1957.47-.304.7504-.3007l5.8384.042c.2794.003.546.1166.7414.3155a1.046 1.046 0 01.3.745l-.0542 7.4539a.4494.4494 0 01-.2736.4072.453.453 0 01-.4848-.0836l-2.8892-2.6904a.453.453 0 00-.6019 0l-2.9252 2.6484a.453.453 0 01-.5033.0932.4492.4492 0 01-.2671-.4347z"/><path fill="#62BCF9" fill-rule="nonzero" d="M389 222h-8l-4 7 4 7h8l4-7zM357.997 233h-3.994L352 236.5l2.003 3.5h3.994l2.003-3.5z"/><path stroke="#FFF" stroke-dasharray="9" stroke-linecap="round" stroke-linejoin="round" stroke-width="3" d="M255 211c4.6662-1.4883 21.073-7.3405 31.9858-24.5946 12.9072-20.4135 8.4417-41.4577 7.526-45.4054"/></g></svg>